<mxfile host="Electron" modified="2024-05-13T14:39:04.872Z" agent="Mozilla/5.0 (Macintosh; Intel Mac OS X 10_15_7) AppleWebKit/537.36 (KHTML, like Gecko) draw.io/22.1.18 Chrome/120.0.6099.199 Electron/28.1.2 Safari/537.36" etag="TwC-8cCoYO_jQNdg951n" version="22.1.18" type="device">
  <diagram name="第 1 页" id="rDmZmpSVGFu8OjM_wcZC">
    <mxGraphModel dx="1420" dy="918" grid="0" gridSize="10" guides="1" tooltips="1" connect="1" arrows="1" fold="1" page="1" pageScale="1" pageWidth="827" pageHeight="1169" math="0" shadow="0">
      <root>
        <mxCell id="0" />
        <mxCell id="1" parent="0" />
        <mxCell id="V-KV8dHxOfstRU11FW4F-1" value="" style="rounded=0;whiteSpace=wrap;html=1;strokeColor=none;fillColor=none;" parent="1" vertex="1">
          <mxGeometry x="8" y="10" width="1058" height="485" as="geometry" />
        </mxCell>
        <mxCell id="V-KV8dHxOfstRU11FW4F-2" value="" style="rounded=0;whiteSpace=wrap;html=1;" parent="1" vertex="1">
          <mxGeometry x="34" y="127" width="281" height="350" as="geometry" />
        </mxCell>
        <mxCell id="V-KV8dHxOfstRU11FW4F-3" value="" style="rounded=0;whiteSpace=wrap;html=1;fillColor=#fff2cc;strokeColor=#d6b656;" parent="1" vertex="1">
          <mxGeometry x="53" y="195" width="248" height="91" as="geometry" />
        </mxCell>
        <mxCell id="V-KV8dHxOfstRU11FW4F-4" value="&lt;b&gt;&lt;font style=&quot;font-size: 14px;&quot; face=&quot;Verdana&quot;&gt;CPU&lt;/font&gt;&lt;/b&gt;" style="rounded=0;whiteSpace=wrap;html=1;fillColor=#f5f5f5;fontColor=#333333;strokeColor=#666666;" parent="1" vertex="1">
          <mxGeometry x="83" y="219" width="69" height="48" as="geometry" />
        </mxCell>
        <mxCell id="V-KV8dHxOfstRU11FW4F-5" value="" style="endArrow=none;html=1;rounded=0;" parent="1" edge="1">
          <mxGeometry width="50" height="50" relative="1" as="geometry">
            <mxPoint x="152" y="229" as="sourcePoint" />
            <mxPoint x="170" y="229" as="targetPoint" />
          </mxGeometry>
        </mxCell>
        <mxCell id="V-KV8dHxOfstRU11FW4F-6" value="" style="endArrow=none;html=1;rounded=0;" parent="1" edge="1">
          <mxGeometry width="50" height="50" relative="1" as="geometry">
            <mxPoint x="152" y="235" as="sourcePoint" />
            <mxPoint x="170" y="235" as="targetPoint" />
          </mxGeometry>
        </mxCell>
        <mxCell id="V-KV8dHxOfstRU11FW4F-7" value="" style="endArrow=none;html=1;rounded=0;" parent="1" edge="1">
          <mxGeometry width="50" height="50" relative="1" as="geometry">
            <mxPoint x="152" y="242" as="sourcePoint" />
            <mxPoint x="170" y="242" as="targetPoint" />
          </mxGeometry>
        </mxCell>
        <mxCell id="V-KV8dHxOfstRU11FW4F-8" value="" style="endArrow=none;html=1;rounded=0;" parent="1" edge="1">
          <mxGeometry width="50" height="50" relative="1" as="geometry">
            <mxPoint x="152" y="248" as="sourcePoint" />
            <mxPoint x="170" y="248" as="targetPoint" />
          </mxGeometry>
        </mxCell>
        <mxCell id="V-KV8dHxOfstRU11FW4F-9" value="" style="endArrow=none;html=1;rounded=0;" parent="1" edge="1">
          <mxGeometry width="50" height="50" relative="1" as="geometry">
            <mxPoint x="152" y="255" as="sourcePoint" />
            <mxPoint x="170" y="255" as="targetPoint" />
          </mxGeometry>
        </mxCell>
        <mxCell id="V-KV8dHxOfstRU11FW4F-10" value="" style="endArrow=none;html=1;rounded=0;" parent="1" edge="1">
          <mxGeometry width="50" height="50" relative="1" as="geometry">
            <mxPoint x="65" y="229.82999999999998" as="sourcePoint" />
            <mxPoint x="83" y="229.82999999999998" as="targetPoint" />
          </mxGeometry>
        </mxCell>
        <mxCell id="V-KV8dHxOfstRU11FW4F-11" value="" style="endArrow=none;html=1;rounded=0;" parent="1" edge="1">
          <mxGeometry width="50" height="50" relative="1" as="geometry">
            <mxPoint x="65" y="235.82999999999998" as="sourcePoint" />
            <mxPoint x="83" y="235.82999999999998" as="targetPoint" />
          </mxGeometry>
        </mxCell>
        <mxCell id="V-KV8dHxOfstRU11FW4F-12" value="" style="endArrow=none;html=1;rounded=0;" parent="1" edge="1">
          <mxGeometry width="50" height="50" relative="1" as="geometry">
            <mxPoint x="65" y="242.82999999999998" as="sourcePoint" />
            <mxPoint x="83" y="242.82999999999998" as="targetPoint" />
          </mxGeometry>
        </mxCell>
        <mxCell id="V-KV8dHxOfstRU11FW4F-13" value="" style="endArrow=none;html=1;rounded=0;" parent="1" edge="1">
          <mxGeometry width="50" height="50" relative="1" as="geometry">
            <mxPoint x="65" y="248.82999999999998" as="sourcePoint" />
            <mxPoint x="83" y="248.82999999999998" as="targetPoint" />
          </mxGeometry>
        </mxCell>
        <mxCell id="V-KV8dHxOfstRU11FW4F-14" value="" style="endArrow=none;html=1;rounded=0;" parent="1" edge="1">
          <mxGeometry width="50" height="50" relative="1" as="geometry">
            <mxPoint x="65" y="255.82999999999998" as="sourcePoint" />
            <mxPoint x="83" y="255.82999999999998" as="targetPoint" />
          </mxGeometry>
        </mxCell>
        <mxCell id="V-KV8dHxOfstRU11FW4F-15" value="" style="endArrow=none;html=1;rounded=0;" parent="1" edge="1">
          <mxGeometry width="50" height="50" relative="1" as="geometry">
            <mxPoint x="133.36" y="283" as="sourcePoint" />
            <mxPoint x="133.36" y="267" as="targetPoint" />
          </mxGeometry>
        </mxCell>
        <mxCell id="V-KV8dHxOfstRU11FW4F-16" value="" style="endArrow=none;html=1;rounded=0;" parent="1" edge="1">
          <mxGeometry width="50" height="50" relative="1" as="geometry">
            <mxPoint x="125.36000000000001" y="283" as="sourcePoint" />
            <mxPoint x="125.36000000000001" y="267" as="targetPoint" />
          </mxGeometry>
        </mxCell>
        <mxCell id="V-KV8dHxOfstRU11FW4F-17" value="" style="endArrow=none;html=1;rounded=0;" parent="1" edge="1">
          <mxGeometry width="50" height="50" relative="1" as="geometry">
            <mxPoint x="117.36000000000001" y="283" as="sourcePoint" />
            <mxPoint x="117.36000000000001" y="267" as="targetPoint" />
          </mxGeometry>
        </mxCell>
        <mxCell id="V-KV8dHxOfstRU11FW4F-18" value="" style="endArrow=none;html=1;rounded=0;" parent="1" edge="1">
          <mxGeometry width="50" height="50" relative="1" as="geometry">
            <mxPoint x="109.36000000000001" y="283" as="sourcePoint" />
            <mxPoint x="109.36000000000001" y="267" as="targetPoint" />
          </mxGeometry>
        </mxCell>
        <mxCell id="V-KV8dHxOfstRU11FW4F-19" value="" style="endArrow=none;html=1;rounded=0;" parent="1" edge="1">
          <mxGeometry width="50" height="50" relative="1" as="geometry">
            <mxPoint x="101.36000000000001" y="283" as="sourcePoint" />
            <mxPoint x="101.36000000000001" y="267" as="targetPoint" />
          </mxGeometry>
        </mxCell>
        <mxCell id="V-KV8dHxOfstRU11FW4F-20" value="" style="endArrow=none;html=1;rounded=0;" parent="1" edge="1">
          <mxGeometry width="50" height="50" relative="1" as="geometry">
            <mxPoint x="133.36" y="219" as="sourcePoint" />
            <mxPoint x="133.36" y="203" as="targetPoint" />
          </mxGeometry>
        </mxCell>
        <mxCell id="V-KV8dHxOfstRU11FW4F-21" value="" style="endArrow=none;html=1;rounded=0;" parent="1" edge="1">
          <mxGeometry width="50" height="50" relative="1" as="geometry">
            <mxPoint x="125.36000000000001" y="219" as="sourcePoint" />
            <mxPoint x="125.36000000000001" y="203" as="targetPoint" />
          </mxGeometry>
        </mxCell>
        <mxCell id="V-KV8dHxOfstRU11FW4F-22" value="" style="endArrow=none;html=1;rounded=0;" parent="1" edge="1">
          <mxGeometry width="50" height="50" relative="1" as="geometry">
            <mxPoint x="117.36000000000001" y="219" as="sourcePoint" />
            <mxPoint x="117.36000000000001" y="203" as="targetPoint" />
          </mxGeometry>
        </mxCell>
        <mxCell id="V-KV8dHxOfstRU11FW4F-23" value="" style="endArrow=none;html=1;rounded=0;" parent="1" edge="1">
          <mxGeometry width="50" height="50" relative="1" as="geometry">
            <mxPoint x="109.36000000000001" y="219" as="sourcePoint" />
            <mxPoint x="109.36000000000001" y="203" as="targetPoint" />
          </mxGeometry>
        </mxCell>
        <mxCell id="V-KV8dHxOfstRU11FW4F-24" value="" style="endArrow=none;html=1;rounded=0;" parent="1" edge="1">
          <mxGeometry width="50" height="50" relative="1" as="geometry">
            <mxPoint x="101.36000000000001" y="219" as="sourcePoint" />
            <mxPoint x="101.36000000000001" y="203" as="targetPoint" />
          </mxGeometry>
        </mxCell>
        <mxCell id="V-KV8dHxOfstRU11FW4F-25" value="&lt;b&gt;&lt;font style=&quot;font-size: 14px;&quot; face=&quot;Verdana&quot;&gt;CPU&lt;/font&gt;&lt;/b&gt;" style="rounded=0;whiteSpace=wrap;html=1;fillColor=#f5f5f5;fontColor=#333333;strokeColor=#666666;" parent="1" vertex="1">
          <mxGeometry x="201" y="219" width="69" height="48" as="geometry" />
        </mxCell>
        <mxCell id="V-KV8dHxOfstRU11FW4F-26" value="" style="endArrow=none;html=1;rounded=0;" parent="1" edge="1">
          <mxGeometry width="50" height="50" relative="1" as="geometry">
            <mxPoint x="270" y="229" as="sourcePoint" />
            <mxPoint x="288" y="229" as="targetPoint" />
          </mxGeometry>
        </mxCell>
        <mxCell id="V-KV8dHxOfstRU11FW4F-27" value="" style="endArrow=none;html=1;rounded=0;" parent="1" edge="1">
          <mxGeometry width="50" height="50" relative="1" as="geometry">
            <mxPoint x="270" y="235" as="sourcePoint" />
            <mxPoint x="288" y="235" as="targetPoint" />
          </mxGeometry>
        </mxCell>
        <mxCell id="V-KV8dHxOfstRU11FW4F-28" value="" style="endArrow=none;html=1;rounded=0;" parent="1" edge="1">
          <mxGeometry width="50" height="50" relative="1" as="geometry">
            <mxPoint x="270" y="242" as="sourcePoint" />
            <mxPoint x="288" y="242" as="targetPoint" />
          </mxGeometry>
        </mxCell>
        <mxCell id="V-KV8dHxOfstRU11FW4F-29" value="" style="endArrow=none;html=1;rounded=0;" parent="1" edge="1">
          <mxGeometry width="50" height="50" relative="1" as="geometry">
            <mxPoint x="270" y="248" as="sourcePoint" />
            <mxPoint x="288" y="248" as="targetPoint" />
          </mxGeometry>
        </mxCell>
        <mxCell id="V-KV8dHxOfstRU11FW4F-30" value="" style="endArrow=none;html=1;rounded=0;" parent="1" edge="1">
          <mxGeometry width="50" height="50" relative="1" as="geometry">
            <mxPoint x="270" y="255" as="sourcePoint" />
            <mxPoint x="288" y="255" as="targetPoint" />
          </mxGeometry>
        </mxCell>
        <mxCell id="V-KV8dHxOfstRU11FW4F-31" value="" style="endArrow=none;html=1;rounded=0;" parent="1" edge="1">
          <mxGeometry width="50" height="50" relative="1" as="geometry">
            <mxPoint x="183" y="229.82999999999998" as="sourcePoint" />
            <mxPoint x="201" y="229.82999999999998" as="targetPoint" />
          </mxGeometry>
        </mxCell>
        <mxCell id="V-KV8dHxOfstRU11FW4F-32" value="" style="endArrow=none;html=1;rounded=0;" parent="1" edge="1">
          <mxGeometry width="50" height="50" relative="1" as="geometry">
            <mxPoint x="183" y="235.82999999999998" as="sourcePoint" />
            <mxPoint x="201" y="235.82999999999998" as="targetPoint" />
          </mxGeometry>
        </mxCell>
        <mxCell id="V-KV8dHxOfstRU11FW4F-33" value="" style="endArrow=none;html=1;rounded=0;" parent="1" edge="1">
          <mxGeometry width="50" height="50" relative="1" as="geometry">
            <mxPoint x="183" y="242.82999999999998" as="sourcePoint" />
            <mxPoint x="201" y="242.82999999999998" as="targetPoint" />
          </mxGeometry>
        </mxCell>
        <mxCell id="V-KV8dHxOfstRU11FW4F-34" value="" style="endArrow=none;html=1;rounded=0;" parent="1" edge="1">
          <mxGeometry width="50" height="50" relative="1" as="geometry">
            <mxPoint x="183" y="248.82999999999998" as="sourcePoint" />
            <mxPoint x="201" y="248.82999999999998" as="targetPoint" />
          </mxGeometry>
        </mxCell>
        <mxCell id="V-KV8dHxOfstRU11FW4F-35" value="" style="endArrow=none;html=1;rounded=0;" parent="1" edge="1">
          <mxGeometry width="50" height="50" relative="1" as="geometry">
            <mxPoint x="183" y="255.82999999999998" as="sourcePoint" />
            <mxPoint x="201" y="255.82999999999998" as="targetPoint" />
          </mxGeometry>
        </mxCell>
        <mxCell id="V-KV8dHxOfstRU11FW4F-36" value="" style="endArrow=none;html=1;rounded=0;" parent="1" edge="1">
          <mxGeometry width="50" height="50" relative="1" as="geometry">
            <mxPoint x="251.36" y="283" as="sourcePoint" />
            <mxPoint x="251.36" y="267" as="targetPoint" />
          </mxGeometry>
        </mxCell>
        <mxCell id="V-KV8dHxOfstRU11FW4F-37" value="" style="endArrow=none;html=1;rounded=0;" parent="1" edge="1">
          <mxGeometry width="50" height="50" relative="1" as="geometry">
            <mxPoint x="243.36" y="283" as="sourcePoint" />
            <mxPoint x="243.36" y="267" as="targetPoint" />
          </mxGeometry>
        </mxCell>
        <mxCell id="V-KV8dHxOfstRU11FW4F-38" value="" style="endArrow=none;html=1;rounded=0;" parent="1" edge="1">
          <mxGeometry width="50" height="50" relative="1" as="geometry">
            <mxPoint x="235.36" y="283" as="sourcePoint" />
            <mxPoint x="235.36" y="267" as="targetPoint" />
          </mxGeometry>
        </mxCell>
        <mxCell id="V-KV8dHxOfstRU11FW4F-39" value="" style="endArrow=none;html=1;rounded=0;" parent="1" edge="1">
          <mxGeometry width="50" height="50" relative="1" as="geometry">
            <mxPoint x="227.36" y="283" as="sourcePoint" />
            <mxPoint x="227.36" y="267" as="targetPoint" />
          </mxGeometry>
        </mxCell>
        <mxCell id="V-KV8dHxOfstRU11FW4F-40" value="" style="endArrow=none;html=1;rounded=0;" parent="1" edge="1">
          <mxGeometry width="50" height="50" relative="1" as="geometry">
            <mxPoint x="219.36" y="283" as="sourcePoint" />
            <mxPoint x="219.36" y="267" as="targetPoint" />
          </mxGeometry>
        </mxCell>
        <mxCell id="V-KV8dHxOfstRU11FW4F-41" value="" style="endArrow=none;html=1;rounded=0;" parent="1" edge="1">
          <mxGeometry width="50" height="50" relative="1" as="geometry">
            <mxPoint x="251.36" y="219" as="sourcePoint" />
            <mxPoint x="251.36" y="203" as="targetPoint" />
          </mxGeometry>
        </mxCell>
        <mxCell id="V-KV8dHxOfstRU11FW4F-42" value="" style="endArrow=none;html=1;rounded=0;" parent="1" edge="1">
          <mxGeometry width="50" height="50" relative="1" as="geometry">
            <mxPoint x="243.36" y="219" as="sourcePoint" />
            <mxPoint x="243.36" y="203" as="targetPoint" />
          </mxGeometry>
        </mxCell>
        <mxCell id="V-KV8dHxOfstRU11FW4F-43" value="" style="endArrow=none;html=1;rounded=0;" parent="1" edge="1">
          <mxGeometry width="50" height="50" relative="1" as="geometry">
            <mxPoint x="235.36" y="219" as="sourcePoint" />
            <mxPoint x="235.36" y="203" as="targetPoint" />
          </mxGeometry>
        </mxCell>
        <mxCell id="V-KV8dHxOfstRU11FW4F-44" value="" style="endArrow=none;html=1;rounded=0;" parent="1" edge="1">
          <mxGeometry width="50" height="50" relative="1" as="geometry">
            <mxPoint x="227.36" y="219" as="sourcePoint" />
            <mxPoint x="227.36" y="203" as="targetPoint" />
          </mxGeometry>
        </mxCell>
        <mxCell id="V-KV8dHxOfstRU11FW4F-45" value="" style="endArrow=none;html=1;rounded=0;" parent="1" edge="1">
          <mxGeometry width="50" height="50" relative="1" as="geometry">
            <mxPoint x="219.36" y="219" as="sourcePoint" />
            <mxPoint x="219.36" y="203" as="targetPoint" />
          </mxGeometry>
        </mxCell>
        <mxCell id="V-KV8dHxOfstRU11FW4F-47" value="&lt;b&gt;&lt;font style=&quot;font-size: 14px;&quot; face=&quot;Verdana&quot;&gt;CPU&lt;/font&gt;&lt;/b&gt;" style="rounded=0;whiteSpace=wrap;html=1;fillColor=#f5f5f5;fontColor=#333333;strokeColor=#666666;" parent="1" vertex="1">
          <mxGeometry x="83" y="306" width="69" height="48" as="geometry" />
        </mxCell>
        <mxCell id="V-KV8dHxOfstRU11FW4F-48" value="" style="endArrow=none;html=1;rounded=0;" parent="1" edge="1">
          <mxGeometry width="50" height="50" relative="1" as="geometry">
            <mxPoint x="152" y="316" as="sourcePoint" />
            <mxPoint x="170" y="316" as="targetPoint" />
          </mxGeometry>
        </mxCell>
        <mxCell id="V-KV8dHxOfstRU11FW4F-49" value="" style="endArrow=none;html=1;rounded=0;" parent="1" edge="1">
          <mxGeometry width="50" height="50" relative="1" as="geometry">
            <mxPoint x="152" y="322" as="sourcePoint" />
            <mxPoint x="170" y="322" as="targetPoint" />
          </mxGeometry>
        </mxCell>
        <mxCell id="V-KV8dHxOfstRU11FW4F-50" value="" style="endArrow=none;html=1;rounded=0;" parent="1" edge="1">
          <mxGeometry width="50" height="50" relative="1" as="geometry">
            <mxPoint x="152" y="329" as="sourcePoint" />
            <mxPoint x="170" y="329" as="targetPoint" />
          </mxGeometry>
        </mxCell>
        <mxCell id="V-KV8dHxOfstRU11FW4F-51" value="" style="endArrow=none;html=1;rounded=0;" parent="1" edge="1">
          <mxGeometry width="50" height="50" relative="1" as="geometry">
            <mxPoint x="152" y="335" as="sourcePoint" />
            <mxPoint x="170" y="335" as="targetPoint" />
          </mxGeometry>
        </mxCell>
        <mxCell id="V-KV8dHxOfstRU11FW4F-52" value="" style="endArrow=none;html=1;rounded=0;" parent="1" edge="1">
          <mxGeometry width="50" height="50" relative="1" as="geometry">
            <mxPoint x="152" y="342" as="sourcePoint" />
            <mxPoint x="170" y="342" as="targetPoint" />
          </mxGeometry>
        </mxCell>
        <mxCell id="V-KV8dHxOfstRU11FW4F-53" value="" style="endArrow=none;html=1;rounded=0;" parent="1" edge="1">
          <mxGeometry width="50" height="50" relative="1" as="geometry">
            <mxPoint x="65" y="316.83" as="sourcePoint" />
            <mxPoint x="83" y="316.83" as="targetPoint" />
          </mxGeometry>
        </mxCell>
        <mxCell id="V-KV8dHxOfstRU11FW4F-54" value="" style="endArrow=none;html=1;rounded=0;" parent="1" edge="1">
          <mxGeometry width="50" height="50" relative="1" as="geometry">
            <mxPoint x="65" y="322.83" as="sourcePoint" />
            <mxPoint x="83" y="322.83" as="targetPoint" />
          </mxGeometry>
        </mxCell>
        <mxCell id="V-KV8dHxOfstRU11FW4F-55" value="" style="endArrow=none;html=1;rounded=0;" parent="1" edge="1">
          <mxGeometry width="50" height="50" relative="1" as="geometry">
            <mxPoint x="65" y="329.83" as="sourcePoint" />
            <mxPoint x="83" y="329.83" as="targetPoint" />
          </mxGeometry>
        </mxCell>
        <mxCell id="V-KV8dHxOfstRU11FW4F-56" value="" style="endArrow=none;html=1;rounded=0;" parent="1" edge="1">
          <mxGeometry width="50" height="50" relative="1" as="geometry">
            <mxPoint x="65" y="335.83" as="sourcePoint" />
            <mxPoint x="83" y="335.83" as="targetPoint" />
          </mxGeometry>
        </mxCell>
        <mxCell id="V-KV8dHxOfstRU11FW4F-57" value="" style="endArrow=none;html=1;rounded=0;" parent="1" edge="1">
          <mxGeometry width="50" height="50" relative="1" as="geometry">
            <mxPoint x="65" y="342.83" as="sourcePoint" />
            <mxPoint x="83" y="342.83" as="targetPoint" />
          </mxGeometry>
        </mxCell>
        <mxCell id="V-KV8dHxOfstRU11FW4F-58" value="" style="endArrow=none;html=1;rounded=0;" parent="1" edge="1">
          <mxGeometry width="50" height="50" relative="1" as="geometry">
            <mxPoint x="133.36" y="370" as="sourcePoint" />
            <mxPoint x="133.36" y="354" as="targetPoint" />
          </mxGeometry>
        </mxCell>
        <mxCell id="V-KV8dHxOfstRU11FW4F-59" value="" style="endArrow=none;html=1;rounded=0;" parent="1" edge="1">
          <mxGeometry width="50" height="50" relative="1" as="geometry">
            <mxPoint x="125.36000000000001" y="370" as="sourcePoint" />
            <mxPoint x="125.36000000000001" y="354" as="targetPoint" />
          </mxGeometry>
        </mxCell>
        <mxCell id="V-KV8dHxOfstRU11FW4F-60" value="" style="endArrow=none;html=1;rounded=0;" parent="1" edge="1">
          <mxGeometry width="50" height="50" relative="1" as="geometry">
            <mxPoint x="117.36000000000001" y="370" as="sourcePoint" />
            <mxPoint x="117.36000000000001" y="354" as="targetPoint" />
          </mxGeometry>
        </mxCell>
        <mxCell id="V-KV8dHxOfstRU11FW4F-61" value="" style="endArrow=none;html=1;rounded=0;" parent="1" edge="1">
          <mxGeometry width="50" height="50" relative="1" as="geometry">
            <mxPoint x="109.36000000000001" y="370" as="sourcePoint" />
            <mxPoint x="109.36000000000001" y="354" as="targetPoint" />
          </mxGeometry>
        </mxCell>
        <mxCell id="V-KV8dHxOfstRU11FW4F-62" value="" style="endArrow=none;html=1;rounded=0;" parent="1" edge="1">
          <mxGeometry width="50" height="50" relative="1" as="geometry">
            <mxPoint x="101.36000000000001" y="370" as="sourcePoint" />
            <mxPoint x="101.36000000000001" y="354" as="targetPoint" />
          </mxGeometry>
        </mxCell>
        <mxCell id="V-KV8dHxOfstRU11FW4F-63" value="" style="endArrow=none;html=1;rounded=0;" parent="1" edge="1">
          <mxGeometry width="50" height="50" relative="1" as="geometry">
            <mxPoint x="133.36" y="306" as="sourcePoint" />
            <mxPoint x="133.36" y="290" as="targetPoint" />
          </mxGeometry>
        </mxCell>
        <mxCell id="V-KV8dHxOfstRU11FW4F-64" value="" style="endArrow=none;html=1;rounded=0;" parent="1" edge="1">
          <mxGeometry width="50" height="50" relative="1" as="geometry">
            <mxPoint x="125.36000000000001" y="306" as="sourcePoint" />
            <mxPoint x="125.36000000000001" y="290" as="targetPoint" />
          </mxGeometry>
        </mxCell>
        <mxCell id="V-KV8dHxOfstRU11FW4F-65" value="" style="endArrow=none;html=1;rounded=0;" parent="1" edge="1">
          <mxGeometry width="50" height="50" relative="1" as="geometry">
            <mxPoint x="117.36000000000001" y="306" as="sourcePoint" />
            <mxPoint x="117.36000000000001" y="290" as="targetPoint" />
          </mxGeometry>
        </mxCell>
        <mxCell id="V-KV8dHxOfstRU11FW4F-66" value="" style="endArrow=none;html=1;rounded=0;" parent="1" edge="1">
          <mxGeometry width="50" height="50" relative="1" as="geometry">
            <mxPoint x="109.36000000000001" y="306" as="sourcePoint" />
            <mxPoint x="109.36000000000001" y="290" as="targetPoint" />
          </mxGeometry>
        </mxCell>
        <mxCell id="V-KV8dHxOfstRU11FW4F-67" value="" style="endArrow=none;html=1;rounded=0;" parent="1" edge="1">
          <mxGeometry width="50" height="50" relative="1" as="geometry">
            <mxPoint x="101.36000000000001" y="306" as="sourcePoint" />
            <mxPoint x="101.36000000000001" y="290" as="targetPoint" />
          </mxGeometry>
        </mxCell>
        <mxCell id="V-KV8dHxOfstRU11FW4F-68" value="&lt;b&gt;&lt;font style=&quot;font-size: 14px;&quot; face=&quot;Verdana&quot;&gt;CPU&lt;/font&gt;&lt;/b&gt;" style="rounded=0;whiteSpace=wrap;html=1;fillColor=#f5f5f5;fontColor=#333333;strokeColor=#666666;" parent="1" vertex="1">
          <mxGeometry x="201" y="306" width="69" height="48" as="geometry" />
        </mxCell>
        <mxCell id="V-KV8dHxOfstRU11FW4F-69" value="" style="endArrow=none;html=1;rounded=0;" parent="1" edge="1">
          <mxGeometry width="50" height="50" relative="1" as="geometry">
            <mxPoint x="270" y="316" as="sourcePoint" />
            <mxPoint x="288" y="316" as="targetPoint" />
          </mxGeometry>
        </mxCell>
        <mxCell id="V-KV8dHxOfstRU11FW4F-70" value="" style="endArrow=none;html=1;rounded=0;" parent="1" edge="1">
          <mxGeometry width="50" height="50" relative="1" as="geometry">
            <mxPoint x="270" y="322" as="sourcePoint" />
            <mxPoint x="288" y="322" as="targetPoint" />
          </mxGeometry>
        </mxCell>
        <mxCell id="V-KV8dHxOfstRU11FW4F-71" value="" style="endArrow=none;html=1;rounded=0;" parent="1" edge="1">
          <mxGeometry width="50" height="50" relative="1" as="geometry">
            <mxPoint x="270" y="329" as="sourcePoint" />
            <mxPoint x="288" y="329" as="targetPoint" />
          </mxGeometry>
        </mxCell>
        <mxCell id="V-KV8dHxOfstRU11FW4F-72" value="" style="endArrow=none;html=1;rounded=0;" parent="1" edge="1">
          <mxGeometry width="50" height="50" relative="1" as="geometry">
            <mxPoint x="270" y="335" as="sourcePoint" />
            <mxPoint x="288" y="335" as="targetPoint" />
          </mxGeometry>
        </mxCell>
        <mxCell id="V-KV8dHxOfstRU11FW4F-73" value="" style="endArrow=none;html=1;rounded=0;" parent="1" edge="1">
          <mxGeometry width="50" height="50" relative="1" as="geometry">
            <mxPoint x="270" y="342" as="sourcePoint" />
            <mxPoint x="288" y="342" as="targetPoint" />
          </mxGeometry>
        </mxCell>
        <mxCell id="V-KV8dHxOfstRU11FW4F-74" value="" style="endArrow=none;html=1;rounded=0;" parent="1" edge="1">
          <mxGeometry width="50" height="50" relative="1" as="geometry">
            <mxPoint x="183" y="316.83" as="sourcePoint" />
            <mxPoint x="201" y="316.83" as="targetPoint" />
          </mxGeometry>
        </mxCell>
        <mxCell id="V-KV8dHxOfstRU11FW4F-75" value="" style="endArrow=none;html=1;rounded=0;" parent="1" edge="1">
          <mxGeometry width="50" height="50" relative="1" as="geometry">
            <mxPoint x="183" y="322.83" as="sourcePoint" />
            <mxPoint x="201" y="322.83" as="targetPoint" />
          </mxGeometry>
        </mxCell>
        <mxCell id="V-KV8dHxOfstRU11FW4F-76" value="" style="endArrow=none;html=1;rounded=0;" parent="1" edge="1">
          <mxGeometry width="50" height="50" relative="1" as="geometry">
            <mxPoint x="183" y="329.83" as="sourcePoint" />
            <mxPoint x="201" y="329.83" as="targetPoint" />
          </mxGeometry>
        </mxCell>
        <mxCell id="V-KV8dHxOfstRU11FW4F-77" value="" style="endArrow=none;html=1;rounded=0;" parent="1" edge="1">
          <mxGeometry width="50" height="50" relative="1" as="geometry">
            <mxPoint x="183" y="335.83" as="sourcePoint" />
            <mxPoint x="201" y="335.83" as="targetPoint" />
          </mxGeometry>
        </mxCell>
        <mxCell id="V-KV8dHxOfstRU11FW4F-78" value="" style="endArrow=none;html=1;rounded=0;" parent="1" edge="1">
          <mxGeometry width="50" height="50" relative="1" as="geometry">
            <mxPoint x="183" y="342.83" as="sourcePoint" />
            <mxPoint x="201" y="342.83" as="targetPoint" />
          </mxGeometry>
        </mxCell>
        <mxCell id="V-KV8dHxOfstRU11FW4F-79" value="" style="endArrow=none;html=1;rounded=0;" parent="1" edge="1">
          <mxGeometry width="50" height="50" relative="1" as="geometry">
            <mxPoint x="251.36" y="370" as="sourcePoint" />
            <mxPoint x="251.36" y="354" as="targetPoint" />
          </mxGeometry>
        </mxCell>
        <mxCell id="V-KV8dHxOfstRU11FW4F-80" value="" style="endArrow=none;html=1;rounded=0;" parent="1" edge="1">
          <mxGeometry width="50" height="50" relative="1" as="geometry">
            <mxPoint x="243.36" y="370" as="sourcePoint" />
            <mxPoint x="243.36" y="354" as="targetPoint" />
          </mxGeometry>
        </mxCell>
        <mxCell id="V-KV8dHxOfstRU11FW4F-81" value="" style="endArrow=none;html=1;rounded=0;" parent="1" edge="1">
          <mxGeometry width="50" height="50" relative="1" as="geometry">
            <mxPoint x="235.36" y="370" as="sourcePoint" />
            <mxPoint x="235.36" y="354" as="targetPoint" />
          </mxGeometry>
        </mxCell>
        <mxCell id="V-KV8dHxOfstRU11FW4F-82" value="" style="endArrow=none;html=1;rounded=0;" parent="1" edge="1">
          <mxGeometry width="50" height="50" relative="1" as="geometry">
            <mxPoint x="227.36" y="370" as="sourcePoint" />
            <mxPoint x="227.36" y="354" as="targetPoint" />
          </mxGeometry>
        </mxCell>
        <mxCell id="V-KV8dHxOfstRU11FW4F-83" value="" style="endArrow=none;html=1;rounded=0;" parent="1" edge="1">
          <mxGeometry width="50" height="50" relative="1" as="geometry">
            <mxPoint x="219.36" y="370" as="sourcePoint" />
            <mxPoint x="219.36" y="354" as="targetPoint" />
          </mxGeometry>
        </mxCell>
        <mxCell id="V-KV8dHxOfstRU11FW4F-84" value="" style="endArrow=none;html=1;rounded=0;" parent="1" edge="1">
          <mxGeometry width="50" height="50" relative="1" as="geometry">
            <mxPoint x="251.36" y="306" as="sourcePoint" />
            <mxPoint x="251.36" y="290" as="targetPoint" />
          </mxGeometry>
        </mxCell>
        <mxCell id="V-KV8dHxOfstRU11FW4F-85" value="" style="endArrow=none;html=1;rounded=0;" parent="1" edge="1">
          <mxGeometry width="50" height="50" relative="1" as="geometry">
            <mxPoint x="243.36" y="306" as="sourcePoint" />
            <mxPoint x="243.36" y="290" as="targetPoint" />
          </mxGeometry>
        </mxCell>
        <mxCell id="V-KV8dHxOfstRU11FW4F-86" value="" style="endArrow=none;html=1;rounded=0;" parent="1" edge="1">
          <mxGeometry width="50" height="50" relative="1" as="geometry">
            <mxPoint x="235.36" y="306" as="sourcePoint" />
            <mxPoint x="235.36" y="290" as="targetPoint" />
          </mxGeometry>
        </mxCell>
        <mxCell id="V-KV8dHxOfstRU11FW4F-87" value="" style="endArrow=none;html=1;rounded=0;" parent="1" edge="1">
          <mxGeometry width="50" height="50" relative="1" as="geometry">
            <mxPoint x="227.36" y="306" as="sourcePoint" />
            <mxPoint x="227.36" y="290" as="targetPoint" />
          </mxGeometry>
        </mxCell>
        <mxCell id="V-KV8dHxOfstRU11FW4F-88" value="" style="endArrow=none;html=1;rounded=0;" parent="1" edge="1">
          <mxGeometry width="50" height="50" relative="1" as="geometry">
            <mxPoint x="219.36" y="306" as="sourcePoint" />
            <mxPoint x="219.36" y="290" as="targetPoint" />
          </mxGeometry>
        </mxCell>
        <mxCell id="V-KV8dHxOfstRU11FW4F-90" value="&lt;b&gt;&lt;font style=&quot;font-size: 14px;&quot; face=&quot;Verdana&quot;&gt;CPU&lt;/font&gt;&lt;/b&gt;" style="rounded=0;whiteSpace=wrap;html=1;fillColor=#f5f5f5;fontColor=#333333;strokeColor=#666666;" parent="1" vertex="1">
          <mxGeometry x="83" y="393" width="69" height="48" as="geometry" />
        </mxCell>
        <mxCell id="V-KV8dHxOfstRU11FW4F-91" value="" style="endArrow=none;html=1;rounded=0;" parent="1" edge="1">
          <mxGeometry width="50" height="50" relative="1" as="geometry">
            <mxPoint x="152" y="403" as="sourcePoint" />
            <mxPoint x="170" y="403" as="targetPoint" />
          </mxGeometry>
        </mxCell>
        <mxCell id="V-KV8dHxOfstRU11FW4F-92" value="" style="endArrow=none;html=1;rounded=0;" parent="1" edge="1">
          <mxGeometry width="50" height="50" relative="1" as="geometry">
            <mxPoint x="152" y="409" as="sourcePoint" />
            <mxPoint x="170" y="409" as="targetPoint" />
          </mxGeometry>
        </mxCell>
        <mxCell id="V-KV8dHxOfstRU11FW4F-93" value="" style="endArrow=none;html=1;rounded=0;" parent="1" edge="1">
          <mxGeometry width="50" height="50" relative="1" as="geometry">
            <mxPoint x="152" y="416" as="sourcePoint" />
            <mxPoint x="170" y="416" as="targetPoint" />
          </mxGeometry>
        </mxCell>
        <mxCell id="V-KV8dHxOfstRU11FW4F-94" value="" style="endArrow=none;html=1;rounded=0;" parent="1" edge="1">
          <mxGeometry width="50" height="50" relative="1" as="geometry">
            <mxPoint x="152" y="422" as="sourcePoint" />
            <mxPoint x="170" y="422" as="targetPoint" />
          </mxGeometry>
        </mxCell>
        <mxCell id="V-KV8dHxOfstRU11FW4F-95" value="" style="endArrow=none;html=1;rounded=0;" parent="1" edge="1">
          <mxGeometry width="50" height="50" relative="1" as="geometry">
            <mxPoint x="152" y="429" as="sourcePoint" />
            <mxPoint x="170" y="429" as="targetPoint" />
          </mxGeometry>
        </mxCell>
        <mxCell id="V-KV8dHxOfstRU11FW4F-96" value="" style="endArrow=none;html=1;rounded=0;" parent="1" edge="1">
          <mxGeometry width="50" height="50" relative="1" as="geometry">
            <mxPoint x="65" y="403.83" as="sourcePoint" />
            <mxPoint x="83" y="403.83" as="targetPoint" />
          </mxGeometry>
        </mxCell>
        <mxCell id="V-KV8dHxOfstRU11FW4F-97" value="" style="endArrow=none;html=1;rounded=0;" parent="1" edge="1">
          <mxGeometry width="50" height="50" relative="1" as="geometry">
            <mxPoint x="65" y="409.83" as="sourcePoint" />
            <mxPoint x="83" y="409.83" as="targetPoint" />
          </mxGeometry>
        </mxCell>
        <mxCell id="V-KV8dHxOfstRU11FW4F-98" value="" style="endArrow=none;html=1;rounded=0;" parent="1" edge="1">
          <mxGeometry width="50" height="50" relative="1" as="geometry">
            <mxPoint x="65" y="416.83" as="sourcePoint" />
            <mxPoint x="83" y="416.83" as="targetPoint" />
          </mxGeometry>
        </mxCell>
        <mxCell id="V-KV8dHxOfstRU11FW4F-99" value="" style="endArrow=none;html=1;rounded=0;" parent="1" edge="1">
          <mxGeometry width="50" height="50" relative="1" as="geometry">
            <mxPoint x="65" y="422.83" as="sourcePoint" />
            <mxPoint x="83" y="422.83" as="targetPoint" />
          </mxGeometry>
        </mxCell>
        <mxCell id="V-KV8dHxOfstRU11FW4F-100" value="" style="endArrow=none;html=1;rounded=0;" parent="1" edge="1">
          <mxGeometry width="50" height="50" relative="1" as="geometry">
            <mxPoint x="65" y="429.83" as="sourcePoint" />
            <mxPoint x="83" y="429.83" as="targetPoint" />
          </mxGeometry>
        </mxCell>
        <mxCell id="V-KV8dHxOfstRU11FW4F-101" value="" style="endArrow=none;html=1;rounded=0;" parent="1" edge="1">
          <mxGeometry width="50" height="50" relative="1" as="geometry">
            <mxPoint x="133.36" y="457" as="sourcePoint" />
            <mxPoint x="133.36" y="441" as="targetPoint" />
          </mxGeometry>
        </mxCell>
        <mxCell id="V-KV8dHxOfstRU11FW4F-102" value="" style="endArrow=none;html=1;rounded=0;" parent="1" edge="1">
          <mxGeometry width="50" height="50" relative="1" as="geometry">
            <mxPoint x="125.36000000000001" y="457" as="sourcePoint" />
            <mxPoint x="125.36000000000001" y="441" as="targetPoint" />
          </mxGeometry>
        </mxCell>
        <mxCell id="V-KV8dHxOfstRU11FW4F-103" value="" style="endArrow=none;html=1;rounded=0;" parent="1" edge="1">
          <mxGeometry width="50" height="50" relative="1" as="geometry">
            <mxPoint x="117.36000000000001" y="457" as="sourcePoint" />
            <mxPoint x="117.36000000000001" y="441" as="targetPoint" />
          </mxGeometry>
        </mxCell>
        <mxCell id="V-KV8dHxOfstRU11FW4F-104" value="" style="endArrow=none;html=1;rounded=0;" parent="1" edge="1">
          <mxGeometry width="50" height="50" relative="1" as="geometry">
            <mxPoint x="109.36000000000001" y="457" as="sourcePoint" />
            <mxPoint x="109.36000000000001" y="441" as="targetPoint" />
          </mxGeometry>
        </mxCell>
        <mxCell id="V-KV8dHxOfstRU11FW4F-105" value="" style="endArrow=none;html=1;rounded=0;" parent="1" edge="1">
          <mxGeometry width="50" height="50" relative="1" as="geometry">
            <mxPoint x="101.36000000000001" y="457" as="sourcePoint" />
            <mxPoint x="101.36000000000001" y="441" as="targetPoint" />
          </mxGeometry>
        </mxCell>
        <mxCell id="V-KV8dHxOfstRU11FW4F-106" value="" style="endArrow=none;html=1;rounded=0;" parent="1" edge="1">
          <mxGeometry width="50" height="50" relative="1" as="geometry">
            <mxPoint x="133.36" y="393" as="sourcePoint" />
            <mxPoint x="133.36" y="377" as="targetPoint" />
          </mxGeometry>
        </mxCell>
        <mxCell id="V-KV8dHxOfstRU11FW4F-107" value="" style="endArrow=none;html=1;rounded=0;" parent="1" edge="1">
          <mxGeometry width="50" height="50" relative="1" as="geometry">
            <mxPoint x="125.36000000000001" y="393" as="sourcePoint" />
            <mxPoint x="125.36000000000001" y="377" as="targetPoint" />
          </mxGeometry>
        </mxCell>
        <mxCell id="V-KV8dHxOfstRU11FW4F-108" value="" style="endArrow=none;html=1;rounded=0;" parent="1" edge="1">
          <mxGeometry width="50" height="50" relative="1" as="geometry">
            <mxPoint x="117.36000000000001" y="393" as="sourcePoint" />
            <mxPoint x="117.36000000000001" y="377" as="targetPoint" />
          </mxGeometry>
        </mxCell>
        <mxCell id="V-KV8dHxOfstRU11FW4F-109" value="" style="endArrow=none;html=1;rounded=0;" parent="1" edge="1">
          <mxGeometry width="50" height="50" relative="1" as="geometry">
            <mxPoint x="109.36000000000001" y="393" as="sourcePoint" />
            <mxPoint x="109.36000000000001" y="377" as="targetPoint" />
          </mxGeometry>
        </mxCell>
        <mxCell id="V-KV8dHxOfstRU11FW4F-110" value="" style="endArrow=none;html=1;rounded=0;" parent="1" edge="1">
          <mxGeometry width="50" height="50" relative="1" as="geometry">
            <mxPoint x="101.36000000000001" y="393" as="sourcePoint" />
            <mxPoint x="101.36000000000001" y="377" as="targetPoint" />
          </mxGeometry>
        </mxCell>
        <mxCell id="V-KV8dHxOfstRU11FW4F-111" value="&lt;b&gt;&lt;font style=&quot;font-size: 14px;&quot; face=&quot;Verdana&quot;&gt;CPU&lt;/font&gt;&lt;/b&gt;" style="rounded=0;whiteSpace=wrap;html=1;fillColor=#f5f5f5;fontColor=#333333;strokeColor=#666666;" parent="1" vertex="1">
          <mxGeometry x="201" y="393" width="69" height="48" as="geometry" />
        </mxCell>
        <mxCell id="V-KV8dHxOfstRU11FW4F-112" value="" style="endArrow=none;html=1;rounded=0;" parent="1" edge="1">
          <mxGeometry width="50" height="50" relative="1" as="geometry">
            <mxPoint x="270" y="403" as="sourcePoint" />
            <mxPoint x="288" y="403" as="targetPoint" />
          </mxGeometry>
        </mxCell>
        <mxCell id="V-KV8dHxOfstRU11FW4F-113" value="" style="endArrow=none;html=1;rounded=0;" parent="1" edge="1">
          <mxGeometry width="50" height="50" relative="1" as="geometry">
            <mxPoint x="270" y="409" as="sourcePoint" />
            <mxPoint x="288" y="409" as="targetPoint" />
          </mxGeometry>
        </mxCell>
        <mxCell id="V-KV8dHxOfstRU11FW4F-114" value="" style="endArrow=none;html=1;rounded=0;" parent="1" edge="1">
          <mxGeometry width="50" height="50" relative="1" as="geometry">
            <mxPoint x="270" y="416" as="sourcePoint" />
            <mxPoint x="288" y="416" as="targetPoint" />
          </mxGeometry>
        </mxCell>
        <mxCell id="V-KV8dHxOfstRU11FW4F-115" value="" style="endArrow=none;html=1;rounded=0;" parent="1" edge="1">
          <mxGeometry width="50" height="50" relative="1" as="geometry">
            <mxPoint x="270" y="422" as="sourcePoint" />
            <mxPoint x="288" y="422" as="targetPoint" />
          </mxGeometry>
        </mxCell>
        <mxCell id="V-KV8dHxOfstRU11FW4F-116" value="" style="endArrow=none;html=1;rounded=0;" parent="1" edge="1">
          <mxGeometry width="50" height="50" relative="1" as="geometry">
            <mxPoint x="270" y="429" as="sourcePoint" />
            <mxPoint x="288" y="429" as="targetPoint" />
          </mxGeometry>
        </mxCell>
        <mxCell id="V-KV8dHxOfstRU11FW4F-117" value="" style="endArrow=none;html=1;rounded=0;" parent="1" edge="1">
          <mxGeometry width="50" height="50" relative="1" as="geometry">
            <mxPoint x="183" y="403.83" as="sourcePoint" />
            <mxPoint x="201" y="403.83" as="targetPoint" />
          </mxGeometry>
        </mxCell>
        <mxCell id="V-KV8dHxOfstRU11FW4F-118" value="" style="endArrow=none;html=1;rounded=0;" parent="1" edge="1">
          <mxGeometry width="50" height="50" relative="1" as="geometry">
            <mxPoint x="183" y="409.83" as="sourcePoint" />
            <mxPoint x="201" y="409.83" as="targetPoint" />
          </mxGeometry>
        </mxCell>
        <mxCell id="V-KV8dHxOfstRU11FW4F-119" value="" style="endArrow=none;html=1;rounded=0;" parent="1" edge="1">
          <mxGeometry width="50" height="50" relative="1" as="geometry">
            <mxPoint x="183" y="416.83" as="sourcePoint" />
            <mxPoint x="201" y="416.83" as="targetPoint" />
          </mxGeometry>
        </mxCell>
        <mxCell id="V-KV8dHxOfstRU11FW4F-120" value="" style="endArrow=none;html=1;rounded=0;" parent="1" edge="1">
          <mxGeometry width="50" height="50" relative="1" as="geometry">
            <mxPoint x="183" y="422.83" as="sourcePoint" />
            <mxPoint x="201" y="422.83" as="targetPoint" />
          </mxGeometry>
        </mxCell>
        <mxCell id="V-KV8dHxOfstRU11FW4F-121" value="" style="endArrow=none;html=1;rounded=0;" parent="1" edge="1">
          <mxGeometry width="50" height="50" relative="1" as="geometry">
            <mxPoint x="183" y="429.83" as="sourcePoint" />
            <mxPoint x="201" y="429.83" as="targetPoint" />
          </mxGeometry>
        </mxCell>
        <mxCell id="V-KV8dHxOfstRU11FW4F-122" value="" style="endArrow=none;html=1;rounded=0;" parent="1" edge="1">
          <mxGeometry width="50" height="50" relative="1" as="geometry">
            <mxPoint x="251.36" y="457" as="sourcePoint" />
            <mxPoint x="251.36" y="441" as="targetPoint" />
          </mxGeometry>
        </mxCell>
        <mxCell id="V-KV8dHxOfstRU11FW4F-123" value="" style="endArrow=none;html=1;rounded=0;" parent="1" edge="1">
          <mxGeometry width="50" height="50" relative="1" as="geometry">
            <mxPoint x="243.36" y="457" as="sourcePoint" />
            <mxPoint x="243.36" y="441" as="targetPoint" />
          </mxGeometry>
        </mxCell>
        <mxCell id="V-KV8dHxOfstRU11FW4F-124" value="" style="endArrow=none;html=1;rounded=0;" parent="1" edge="1">
          <mxGeometry width="50" height="50" relative="1" as="geometry">
            <mxPoint x="235.36" y="457" as="sourcePoint" />
            <mxPoint x="235.36" y="441" as="targetPoint" />
          </mxGeometry>
        </mxCell>
        <mxCell id="V-KV8dHxOfstRU11FW4F-125" value="" style="endArrow=none;html=1;rounded=0;" parent="1" edge="1">
          <mxGeometry width="50" height="50" relative="1" as="geometry">
            <mxPoint x="227.36" y="457" as="sourcePoint" />
            <mxPoint x="227.36" y="441" as="targetPoint" />
          </mxGeometry>
        </mxCell>
        <mxCell id="V-KV8dHxOfstRU11FW4F-126" value="" style="endArrow=none;html=1;rounded=0;" parent="1" edge="1">
          <mxGeometry width="50" height="50" relative="1" as="geometry">
            <mxPoint x="219.36" y="457" as="sourcePoint" />
            <mxPoint x="219.36" y="441" as="targetPoint" />
          </mxGeometry>
        </mxCell>
        <mxCell id="V-KV8dHxOfstRU11FW4F-127" value="" style="endArrow=none;html=1;rounded=0;" parent="1" edge="1">
          <mxGeometry width="50" height="50" relative="1" as="geometry">
            <mxPoint x="251.36" y="393" as="sourcePoint" />
            <mxPoint x="251.36" y="377" as="targetPoint" />
          </mxGeometry>
        </mxCell>
        <mxCell id="V-KV8dHxOfstRU11FW4F-128" value="" style="endArrow=none;html=1;rounded=0;" parent="1" edge="1">
          <mxGeometry width="50" height="50" relative="1" as="geometry">
            <mxPoint x="243.36" y="393" as="sourcePoint" />
            <mxPoint x="243.36" y="377" as="targetPoint" />
          </mxGeometry>
        </mxCell>
        <mxCell id="V-KV8dHxOfstRU11FW4F-129" value="" style="endArrow=none;html=1;rounded=0;" parent="1" edge="1">
          <mxGeometry width="50" height="50" relative="1" as="geometry">
            <mxPoint x="235.36" y="393" as="sourcePoint" />
            <mxPoint x="235.36" y="377" as="targetPoint" />
          </mxGeometry>
        </mxCell>
        <mxCell id="V-KV8dHxOfstRU11FW4F-130" value="" style="endArrow=none;html=1;rounded=0;" parent="1" edge="1">
          <mxGeometry width="50" height="50" relative="1" as="geometry">
            <mxPoint x="227.36" y="393" as="sourcePoint" />
            <mxPoint x="227.36" y="377" as="targetPoint" />
          </mxGeometry>
        </mxCell>
        <mxCell id="V-KV8dHxOfstRU11FW4F-131" value="" style="endArrow=none;html=1;rounded=0;" parent="1" edge="1">
          <mxGeometry width="50" height="50" relative="1" as="geometry">
            <mxPoint x="219.36" y="393" as="sourcePoint" />
            <mxPoint x="219.36" y="377" as="targetPoint" />
          </mxGeometry>
        </mxCell>
        <mxCell id="V-KV8dHxOfstRU11FW4F-132" value="&lt;font style=&quot;font-size: 18px;&quot;&gt;{&quot;CPU&quot;:6}&lt;/font&gt;" style="text;html=1;align=center;verticalAlign=middle;whiteSpace=wrap;rounded=0;fontFamily=Courier New;fontStyle=1;fontSize=18;" parent="1" vertex="1">
          <mxGeometry x="197" y="129" width="118" height="30" as="geometry" />
        </mxCell>
        <mxCell id="V-KV8dHxOfstRU11FW4F-133" value="" style="rounded=0;whiteSpace=wrap;html=1;" parent="1" vertex="1">
          <mxGeometry x="425" y="127" width="281" height="350" as="geometry" />
        </mxCell>
        <mxCell id="V-KV8dHxOfstRU11FW4F-134" value="" style="rounded=0;whiteSpace=wrap;html=1;fillColor=#fff2cc;strokeColor=#d6b656;" parent="1" vertex="1">
          <mxGeometry x="444" y="195" width="248" height="91" as="geometry" />
        </mxCell>
        <mxCell id="V-KV8dHxOfstRU11FW4F-135" value="&lt;b&gt;&lt;font style=&quot;font-size: 14px;&quot; face=&quot;Verdana&quot;&gt;CPU&lt;/font&gt;&lt;/b&gt;" style="rounded=0;whiteSpace=wrap;html=1;fillColor=#f5f5f5;fontColor=#333333;strokeColor=#666666;" parent="1" vertex="1">
          <mxGeometry x="474" y="219" width="69" height="48" as="geometry" />
        </mxCell>
        <mxCell id="V-KV8dHxOfstRU11FW4F-136" value="" style="endArrow=none;html=1;rounded=0;" parent="1" edge="1">
          <mxGeometry width="50" height="50" relative="1" as="geometry">
            <mxPoint x="543" y="229" as="sourcePoint" />
            <mxPoint x="561" y="229" as="targetPoint" />
          </mxGeometry>
        </mxCell>
        <mxCell id="V-KV8dHxOfstRU11FW4F-137" value="" style="endArrow=none;html=1;rounded=0;" parent="1" edge="1">
          <mxGeometry width="50" height="50" relative="1" as="geometry">
            <mxPoint x="543" y="235" as="sourcePoint" />
            <mxPoint x="561" y="235" as="targetPoint" />
          </mxGeometry>
        </mxCell>
        <mxCell id="V-KV8dHxOfstRU11FW4F-138" value="" style="endArrow=none;html=1;rounded=0;" parent="1" edge="1">
          <mxGeometry width="50" height="50" relative="1" as="geometry">
            <mxPoint x="543" y="242" as="sourcePoint" />
            <mxPoint x="561" y="242" as="targetPoint" />
          </mxGeometry>
        </mxCell>
        <mxCell id="V-KV8dHxOfstRU11FW4F-139" value="" style="endArrow=none;html=1;rounded=0;" parent="1" edge="1">
          <mxGeometry width="50" height="50" relative="1" as="geometry">
            <mxPoint x="543" y="248" as="sourcePoint" />
            <mxPoint x="561" y="248" as="targetPoint" />
          </mxGeometry>
        </mxCell>
        <mxCell id="V-KV8dHxOfstRU11FW4F-140" value="" style="endArrow=none;html=1;rounded=0;" parent="1" edge="1">
          <mxGeometry width="50" height="50" relative="1" as="geometry">
            <mxPoint x="543" y="255" as="sourcePoint" />
            <mxPoint x="561" y="255" as="targetPoint" />
          </mxGeometry>
        </mxCell>
        <mxCell id="V-KV8dHxOfstRU11FW4F-141" value="" style="endArrow=none;html=1;rounded=0;" parent="1" edge="1">
          <mxGeometry width="50" height="50" relative="1" as="geometry">
            <mxPoint x="456" y="229.82999999999998" as="sourcePoint" />
            <mxPoint x="474" y="229.82999999999998" as="targetPoint" />
          </mxGeometry>
        </mxCell>
        <mxCell id="V-KV8dHxOfstRU11FW4F-142" value="" style="endArrow=none;html=1;rounded=0;" parent="1" edge="1">
          <mxGeometry width="50" height="50" relative="1" as="geometry">
            <mxPoint x="456" y="235.82999999999998" as="sourcePoint" />
            <mxPoint x="474" y="235.82999999999998" as="targetPoint" />
          </mxGeometry>
        </mxCell>
        <mxCell id="V-KV8dHxOfstRU11FW4F-143" value="" style="endArrow=none;html=1;rounded=0;" parent="1" edge="1">
          <mxGeometry width="50" height="50" relative="1" as="geometry">
            <mxPoint x="456" y="242.82999999999998" as="sourcePoint" />
            <mxPoint x="474" y="242.82999999999998" as="targetPoint" />
          </mxGeometry>
        </mxCell>
        <mxCell id="V-KV8dHxOfstRU11FW4F-144" value="" style="endArrow=none;html=1;rounded=0;" parent="1" edge="1">
          <mxGeometry width="50" height="50" relative="1" as="geometry">
            <mxPoint x="456" y="248.82999999999998" as="sourcePoint" />
            <mxPoint x="474" y="248.82999999999998" as="targetPoint" />
          </mxGeometry>
        </mxCell>
        <mxCell id="V-KV8dHxOfstRU11FW4F-145" value="" style="endArrow=none;html=1;rounded=0;" parent="1" edge="1">
          <mxGeometry width="50" height="50" relative="1" as="geometry">
            <mxPoint x="456" y="255.82999999999998" as="sourcePoint" />
            <mxPoint x="474" y="255.82999999999998" as="targetPoint" />
          </mxGeometry>
        </mxCell>
        <mxCell id="V-KV8dHxOfstRU11FW4F-146" value="" style="endArrow=none;html=1;rounded=0;" parent="1" edge="1">
          <mxGeometry width="50" height="50" relative="1" as="geometry">
            <mxPoint x="524.36" y="283" as="sourcePoint" />
            <mxPoint x="524.36" y="267" as="targetPoint" />
          </mxGeometry>
        </mxCell>
        <mxCell id="V-KV8dHxOfstRU11FW4F-147" value="" style="endArrow=none;html=1;rounded=0;" parent="1" edge="1">
          <mxGeometry width="50" height="50" relative="1" as="geometry">
            <mxPoint x="516.36" y="283" as="sourcePoint" />
            <mxPoint x="516.36" y="267" as="targetPoint" />
          </mxGeometry>
        </mxCell>
        <mxCell id="V-KV8dHxOfstRU11FW4F-148" value="" style="endArrow=none;html=1;rounded=0;" parent="1" edge="1">
          <mxGeometry width="50" height="50" relative="1" as="geometry">
            <mxPoint x="508.36" y="283" as="sourcePoint" />
            <mxPoint x="508.36" y="267" as="targetPoint" />
          </mxGeometry>
        </mxCell>
        <mxCell id="V-KV8dHxOfstRU11FW4F-149" value="" style="endArrow=none;html=1;rounded=0;" parent="1" edge="1">
          <mxGeometry width="50" height="50" relative="1" as="geometry">
            <mxPoint x="500.36" y="283" as="sourcePoint" />
            <mxPoint x="500.36" y="267" as="targetPoint" />
          </mxGeometry>
        </mxCell>
        <mxCell id="V-KV8dHxOfstRU11FW4F-150" value="" style="endArrow=none;html=1;rounded=0;" parent="1" edge="1">
          <mxGeometry width="50" height="50" relative="1" as="geometry">
            <mxPoint x="492.36" y="283" as="sourcePoint" />
            <mxPoint x="492.36" y="267" as="targetPoint" />
          </mxGeometry>
        </mxCell>
        <mxCell id="V-KV8dHxOfstRU11FW4F-151" value="" style="endArrow=none;html=1;rounded=0;" parent="1" edge="1">
          <mxGeometry width="50" height="50" relative="1" as="geometry">
            <mxPoint x="524.36" y="219" as="sourcePoint" />
            <mxPoint x="524.36" y="203" as="targetPoint" />
          </mxGeometry>
        </mxCell>
        <mxCell id="V-KV8dHxOfstRU11FW4F-152" value="" style="endArrow=none;html=1;rounded=0;" parent="1" edge="1">
          <mxGeometry width="50" height="50" relative="1" as="geometry">
            <mxPoint x="516.36" y="219" as="sourcePoint" />
            <mxPoint x="516.36" y="203" as="targetPoint" />
          </mxGeometry>
        </mxCell>
        <mxCell id="V-KV8dHxOfstRU11FW4F-153" value="" style="endArrow=none;html=1;rounded=0;" parent="1" edge="1">
          <mxGeometry width="50" height="50" relative="1" as="geometry">
            <mxPoint x="508.36" y="219" as="sourcePoint" />
            <mxPoint x="508.36" y="203" as="targetPoint" />
          </mxGeometry>
        </mxCell>
        <mxCell id="V-KV8dHxOfstRU11FW4F-154" value="" style="endArrow=none;html=1;rounded=0;" parent="1" edge="1">
          <mxGeometry width="50" height="50" relative="1" as="geometry">
            <mxPoint x="500.36" y="219" as="sourcePoint" />
            <mxPoint x="500.36" y="203" as="targetPoint" />
          </mxGeometry>
        </mxCell>
        <mxCell id="V-KV8dHxOfstRU11FW4F-155" value="" style="endArrow=none;html=1;rounded=0;" parent="1" edge="1">
          <mxGeometry width="50" height="50" relative="1" as="geometry">
            <mxPoint x="492.36" y="219" as="sourcePoint" />
            <mxPoint x="492.36" y="203" as="targetPoint" />
          </mxGeometry>
        </mxCell>
        <mxCell id="V-KV8dHxOfstRU11FW4F-156" value="&lt;b&gt;&lt;font style=&quot;font-size: 14px;&quot; face=&quot;Verdana&quot;&gt;CPU&lt;/font&gt;&lt;/b&gt;" style="rounded=0;whiteSpace=wrap;html=1;fillColor=#f5f5f5;fontColor=#333333;strokeColor=#666666;" parent="1" vertex="1">
          <mxGeometry x="592" y="219" width="69" height="48" as="geometry" />
        </mxCell>
        <mxCell id="V-KV8dHxOfstRU11FW4F-157" value="" style="endArrow=none;html=1;rounded=0;" parent="1" edge="1">
          <mxGeometry width="50" height="50" relative="1" as="geometry">
            <mxPoint x="661" y="229" as="sourcePoint" />
            <mxPoint x="679" y="229" as="targetPoint" />
          </mxGeometry>
        </mxCell>
        <mxCell id="V-KV8dHxOfstRU11FW4F-158" value="" style="endArrow=none;html=1;rounded=0;" parent="1" edge="1">
          <mxGeometry width="50" height="50" relative="1" as="geometry">
            <mxPoint x="661" y="235" as="sourcePoint" />
            <mxPoint x="679" y="235" as="targetPoint" />
          </mxGeometry>
        </mxCell>
        <mxCell id="V-KV8dHxOfstRU11FW4F-159" value="" style="endArrow=none;html=1;rounded=0;" parent="1" edge="1">
          <mxGeometry width="50" height="50" relative="1" as="geometry">
            <mxPoint x="661" y="242" as="sourcePoint" />
            <mxPoint x="679" y="242" as="targetPoint" />
          </mxGeometry>
        </mxCell>
        <mxCell id="V-KV8dHxOfstRU11FW4F-160" value="" style="endArrow=none;html=1;rounded=0;" parent="1" edge="1">
          <mxGeometry width="50" height="50" relative="1" as="geometry">
            <mxPoint x="661" y="248" as="sourcePoint" />
            <mxPoint x="679" y="248" as="targetPoint" />
          </mxGeometry>
        </mxCell>
        <mxCell id="V-KV8dHxOfstRU11FW4F-161" value="" style="endArrow=none;html=1;rounded=0;" parent="1" edge="1">
          <mxGeometry width="50" height="50" relative="1" as="geometry">
            <mxPoint x="661" y="255" as="sourcePoint" />
            <mxPoint x="679" y="255" as="targetPoint" />
          </mxGeometry>
        </mxCell>
        <mxCell id="V-KV8dHxOfstRU11FW4F-162" value="" style="endArrow=none;html=1;rounded=0;" parent="1" edge="1">
          <mxGeometry width="50" height="50" relative="1" as="geometry">
            <mxPoint x="574" y="229.82999999999998" as="sourcePoint" />
            <mxPoint x="592" y="229.82999999999998" as="targetPoint" />
          </mxGeometry>
        </mxCell>
        <mxCell id="V-KV8dHxOfstRU11FW4F-163" value="" style="endArrow=none;html=1;rounded=0;" parent="1" edge="1">
          <mxGeometry width="50" height="50" relative="1" as="geometry">
            <mxPoint x="574" y="235.82999999999998" as="sourcePoint" />
            <mxPoint x="592" y="235.82999999999998" as="targetPoint" />
          </mxGeometry>
        </mxCell>
        <mxCell id="V-KV8dHxOfstRU11FW4F-164" value="" style="endArrow=none;html=1;rounded=0;" parent="1" edge="1">
          <mxGeometry width="50" height="50" relative="1" as="geometry">
            <mxPoint x="574" y="242.82999999999998" as="sourcePoint" />
            <mxPoint x="592" y="242.82999999999998" as="targetPoint" />
          </mxGeometry>
        </mxCell>
        <mxCell id="V-KV8dHxOfstRU11FW4F-165" value="" style="endArrow=none;html=1;rounded=0;" parent="1" edge="1">
          <mxGeometry width="50" height="50" relative="1" as="geometry">
            <mxPoint x="574" y="248.82999999999998" as="sourcePoint" />
            <mxPoint x="592" y="248.82999999999998" as="targetPoint" />
          </mxGeometry>
        </mxCell>
        <mxCell id="V-KV8dHxOfstRU11FW4F-166" value="" style="endArrow=none;html=1;rounded=0;" parent="1" edge="1">
          <mxGeometry width="50" height="50" relative="1" as="geometry">
            <mxPoint x="574" y="255.82999999999998" as="sourcePoint" />
            <mxPoint x="592" y="255.82999999999998" as="targetPoint" />
          </mxGeometry>
        </mxCell>
        <mxCell id="V-KV8dHxOfstRU11FW4F-167" value="" style="endArrow=none;html=1;rounded=0;" parent="1" edge="1">
          <mxGeometry width="50" height="50" relative="1" as="geometry">
            <mxPoint x="642.36" y="283" as="sourcePoint" />
            <mxPoint x="642.36" y="267" as="targetPoint" />
          </mxGeometry>
        </mxCell>
        <mxCell id="V-KV8dHxOfstRU11FW4F-168" value="" style="endArrow=none;html=1;rounded=0;" parent="1" edge="1">
          <mxGeometry width="50" height="50" relative="1" as="geometry">
            <mxPoint x="634.36" y="283" as="sourcePoint" />
            <mxPoint x="634.36" y="267" as="targetPoint" />
          </mxGeometry>
        </mxCell>
        <mxCell id="V-KV8dHxOfstRU11FW4F-169" value="" style="endArrow=none;html=1;rounded=0;" parent="1" edge="1">
          <mxGeometry width="50" height="50" relative="1" as="geometry">
            <mxPoint x="626.36" y="283" as="sourcePoint" />
            <mxPoint x="626.36" y="267" as="targetPoint" />
          </mxGeometry>
        </mxCell>
        <mxCell id="V-KV8dHxOfstRU11FW4F-170" value="" style="endArrow=none;html=1;rounded=0;" parent="1" edge="1">
          <mxGeometry width="50" height="50" relative="1" as="geometry">
            <mxPoint x="618.36" y="283" as="sourcePoint" />
            <mxPoint x="618.36" y="267" as="targetPoint" />
          </mxGeometry>
        </mxCell>
        <mxCell id="V-KV8dHxOfstRU11FW4F-171" value="" style="endArrow=none;html=1;rounded=0;" parent="1" edge="1">
          <mxGeometry width="50" height="50" relative="1" as="geometry">
            <mxPoint x="610.36" y="283" as="sourcePoint" />
            <mxPoint x="610.36" y="267" as="targetPoint" />
          </mxGeometry>
        </mxCell>
        <mxCell id="V-KV8dHxOfstRU11FW4F-172" value="" style="endArrow=none;html=1;rounded=0;" parent="1" edge="1">
          <mxGeometry width="50" height="50" relative="1" as="geometry">
            <mxPoint x="642.36" y="219" as="sourcePoint" />
            <mxPoint x="642.36" y="203" as="targetPoint" />
          </mxGeometry>
        </mxCell>
        <mxCell id="V-KV8dHxOfstRU11FW4F-173" value="" style="endArrow=none;html=1;rounded=0;" parent="1" edge="1">
          <mxGeometry width="50" height="50" relative="1" as="geometry">
            <mxPoint x="634.36" y="219" as="sourcePoint" />
            <mxPoint x="634.36" y="203" as="targetPoint" />
          </mxGeometry>
        </mxCell>
        <mxCell id="V-KV8dHxOfstRU11FW4F-174" value="" style="endArrow=none;html=1;rounded=0;" parent="1" edge="1">
          <mxGeometry width="50" height="50" relative="1" as="geometry">
            <mxPoint x="626.36" y="219" as="sourcePoint" />
            <mxPoint x="626.36" y="203" as="targetPoint" />
          </mxGeometry>
        </mxCell>
        <mxCell id="V-KV8dHxOfstRU11FW4F-175" value="" style="endArrow=none;html=1;rounded=0;" parent="1" edge="1">
          <mxGeometry width="50" height="50" relative="1" as="geometry">
            <mxPoint x="618.36" y="219" as="sourcePoint" />
            <mxPoint x="618.36" y="203" as="targetPoint" />
          </mxGeometry>
        </mxCell>
        <mxCell id="V-KV8dHxOfstRU11FW4F-176" value="" style="endArrow=none;html=1;rounded=0;" parent="1" edge="1">
          <mxGeometry width="50" height="50" relative="1" as="geometry">
            <mxPoint x="610.36" y="219" as="sourcePoint" />
            <mxPoint x="610.36" y="203" as="targetPoint" />
          </mxGeometry>
        </mxCell>
        <mxCell id="V-KV8dHxOfstRU11FW4F-178" value="&lt;b&gt;&lt;font style=&quot;font-size: 14px;&quot; face=&quot;Verdana&quot;&gt;CPU&lt;/font&gt;&lt;/b&gt;" style="rounded=0;whiteSpace=wrap;html=1;fillColor=#f5f5f5;fontColor=#333333;strokeColor=#666666;" parent="1" vertex="1">
          <mxGeometry x="474" y="306" width="69" height="48" as="geometry" />
        </mxCell>
        <mxCell id="V-KV8dHxOfstRU11FW4F-179" value="" style="endArrow=none;html=1;rounded=0;" parent="1" edge="1">
          <mxGeometry width="50" height="50" relative="1" as="geometry">
            <mxPoint x="543" y="316" as="sourcePoint" />
            <mxPoint x="561" y="316" as="targetPoint" />
          </mxGeometry>
        </mxCell>
        <mxCell id="V-KV8dHxOfstRU11FW4F-180" value="" style="endArrow=none;html=1;rounded=0;" parent="1" edge="1">
          <mxGeometry width="50" height="50" relative="1" as="geometry">
            <mxPoint x="543" y="322" as="sourcePoint" />
            <mxPoint x="561" y="322" as="targetPoint" />
          </mxGeometry>
        </mxCell>
        <mxCell id="V-KV8dHxOfstRU11FW4F-181" value="" style="endArrow=none;html=1;rounded=0;" parent="1" edge="1">
          <mxGeometry width="50" height="50" relative="1" as="geometry">
            <mxPoint x="543" y="329" as="sourcePoint" />
            <mxPoint x="561" y="329" as="targetPoint" />
          </mxGeometry>
        </mxCell>
        <mxCell id="V-KV8dHxOfstRU11FW4F-182" value="" style="endArrow=none;html=1;rounded=0;" parent="1" edge="1">
          <mxGeometry width="50" height="50" relative="1" as="geometry">
            <mxPoint x="543" y="335" as="sourcePoint" />
            <mxPoint x="561" y="335" as="targetPoint" />
          </mxGeometry>
        </mxCell>
        <mxCell id="V-KV8dHxOfstRU11FW4F-183" value="" style="endArrow=none;html=1;rounded=0;" parent="1" edge="1">
          <mxGeometry width="50" height="50" relative="1" as="geometry">
            <mxPoint x="543" y="342" as="sourcePoint" />
            <mxPoint x="561" y="342" as="targetPoint" />
          </mxGeometry>
        </mxCell>
        <mxCell id="V-KV8dHxOfstRU11FW4F-184" value="" style="endArrow=none;html=1;rounded=0;" parent="1" edge="1">
          <mxGeometry width="50" height="50" relative="1" as="geometry">
            <mxPoint x="456" y="316.83" as="sourcePoint" />
            <mxPoint x="474" y="316.83" as="targetPoint" />
          </mxGeometry>
        </mxCell>
        <mxCell id="V-KV8dHxOfstRU11FW4F-185" value="" style="endArrow=none;html=1;rounded=0;" parent="1" edge="1">
          <mxGeometry width="50" height="50" relative="1" as="geometry">
            <mxPoint x="456" y="322.83" as="sourcePoint" />
            <mxPoint x="474" y="322.83" as="targetPoint" />
          </mxGeometry>
        </mxCell>
        <mxCell id="V-KV8dHxOfstRU11FW4F-186" value="" style="endArrow=none;html=1;rounded=0;" parent="1" edge="1">
          <mxGeometry width="50" height="50" relative="1" as="geometry">
            <mxPoint x="456" y="329.83" as="sourcePoint" />
            <mxPoint x="474" y="329.83" as="targetPoint" />
          </mxGeometry>
        </mxCell>
        <mxCell id="V-KV8dHxOfstRU11FW4F-187" value="" style="endArrow=none;html=1;rounded=0;" parent="1" edge="1">
          <mxGeometry width="50" height="50" relative="1" as="geometry">
            <mxPoint x="456" y="335.83" as="sourcePoint" />
            <mxPoint x="474" y="335.83" as="targetPoint" />
          </mxGeometry>
        </mxCell>
        <mxCell id="V-KV8dHxOfstRU11FW4F-188" value="" style="endArrow=none;html=1;rounded=0;" parent="1" edge="1">
          <mxGeometry width="50" height="50" relative="1" as="geometry">
            <mxPoint x="456" y="342.83" as="sourcePoint" />
            <mxPoint x="474" y="342.83" as="targetPoint" />
          </mxGeometry>
        </mxCell>
        <mxCell id="V-KV8dHxOfstRU11FW4F-189" value="" style="endArrow=none;html=1;rounded=0;" parent="1" edge="1">
          <mxGeometry width="50" height="50" relative="1" as="geometry">
            <mxPoint x="524.36" y="370" as="sourcePoint" />
            <mxPoint x="524.36" y="354" as="targetPoint" />
          </mxGeometry>
        </mxCell>
        <mxCell id="V-KV8dHxOfstRU11FW4F-190" value="" style="endArrow=none;html=1;rounded=0;" parent="1" edge="1">
          <mxGeometry width="50" height="50" relative="1" as="geometry">
            <mxPoint x="516.36" y="370" as="sourcePoint" />
            <mxPoint x="516.36" y="354" as="targetPoint" />
          </mxGeometry>
        </mxCell>
        <mxCell id="V-KV8dHxOfstRU11FW4F-191" value="" style="endArrow=none;html=1;rounded=0;" parent="1" edge="1">
          <mxGeometry width="50" height="50" relative="1" as="geometry">
            <mxPoint x="508.36" y="370" as="sourcePoint" />
            <mxPoint x="508.36" y="354" as="targetPoint" />
          </mxGeometry>
        </mxCell>
        <mxCell id="V-KV8dHxOfstRU11FW4F-192" value="" style="endArrow=none;html=1;rounded=0;" parent="1" edge="1">
          <mxGeometry width="50" height="50" relative="1" as="geometry">
            <mxPoint x="500.36" y="370" as="sourcePoint" />
            <mxPoint x="500.36" y="354" as="targetPoint" />
          </mxGeometry>
        </mxCell>
        <mxCell id="V-KV8dHxOfstRU11FW4F-193" value="" style="endArrow=none;html=1;rounded=0;" parent="1" edge="1">
          <mxGeometry width="50" height="50" relative="1" as="geometry">
            <mxPoint x="492.36" y="370" as="sourcePoint" />
            <mxPoint x="492.36" y="354" as="targetPoint" />
          </mxGeometry>
        </mxCell>
        <mxCell id="V-KV8dHxOfstRU11FW4F-194" value="" style="endArrow=none;html=1;rounded=0;" parent="1" edge="1">
          <mxGeometry width="50" height="50" relative="1" as="geometry">
            <mxPoint x="524.36" y="306" as="sourcePoint" />
            <mxPoint x="524.36" y="290" as="targetPoint" />
          </mxGeometry>
        </mxCell>
        <mxCell id="V-KV8dHxOfstRU11FW4F-195" value="" style="endArrow=none;html=1;rounded=0;" parent="1" edge="1">
          <mxGeometry width="50" height="50" relative="1" as="geometry">
            <mxPoint x="516.36" y="306" as="sourcePoint" />
            <mxPoint x="516.36" y="290" as="targetPoint" />
          </mxGeometry>
        </mxCell>
        <mxCell id="V-KV8dHxOfstRU11FW4F-196" value="" style="endArrow=none;html=1;rounded=0;" parent="1" edge="1">
          <mxGeometry width="50" height="50" relative="1" as="geometry">
            <mxPoint x="508.36" y="306" as="sourcePoint" />
            <mxPoint x="508.36" y="290" as="targetPoint" />
          </mxGeometry>
        </mxCell>
        <mxCell id="V-KV8dHxOfstRU11FW4F-197" value="" style="endArrow=none;html=1;rounded=0;" parent="1" edge="1">
          <mxGeometry width="50" height="50" relative="1" as="geometry">
            <mxPoint x="500.36" y="306" as="sourcePoint" />
            <mxPoint x="500.36" y="290" as="targetPoint" />
          </mxGeometry>
        </mxCell>
        <mxCell id="V-KV8dHxOfstRU11FW4F-198" value="" style="endArrow=none;html=1;rounded=0;" parent="1" edge="1">
          <mxGeometry width="50" height="50" relative="1" as="geometry">
            <mxPoint x="492.36" y="306" as="sourcePoint" />
            <mxPoint x="492.36" y="290" as="targetPoint" />
          </mxGeometry>
        </mxCell>
        <mxCell id="V-KV8dHxOfstRU11FW4F-199" value="&lt;b&gt;&lt;font style=&quot;font-size: 14px;&quot; face=&quot;Verdana&quot;&gt;CPU&lt;/font&gt;&lt;/b&gt;" style="rounded=0;whiteSpace=wrap;html=1;fillColor=#f5f5f5;fontColor=#333333;strokeColor=#666666;" parent="1" vertex="1">
          <mxGeometry x="592" y="306" width="69" height="48" as="geometry" />
        </mxCell>
        <mxCell id="V-KV8dHxOfstRU11FW4F-200" value="" style="endArrow=none;html=1;rounded=0;" parent="1" edge="1">
          <mxGeometry width="50" height="50" relative="1" as="geometry">
            <mxPoint x="661" y="316" as="sourcePoint" />
            <mxPoint x="679" y="316" as="targetPoint" />
          </mxGeometry>
        </mxCell>
        <mxCell id="V-KV8dHxOfstRU11FW4F-201" value="" style="endArrow=none;html=1;rounded=0;" parent="1" edge="1">
          <mxGeometry width="50" height="50" relative="1" as="geometry">
            <mxPoint x="661" y="322" as="sourcePoint" />
            <mxPoint x="679" y="322" as="targetPoint" />
          </mxGeometry>
        </mxCell>
        <mxCell id="V-KV8dHxOfstRU11FW4F-202" value="" style="endArrow=none;html=1;rounded=0;" parent="1" edge="1">
          <mxGeometry width="50" height="50" relative="1" as="geometry">
            <mxPoint x="661" y="329" as="sourcePoint" />
            <mxPoint x="679" y="329" as="targetPoint" />
          </mxGeometry>
        </mxCell>
        <mxCell id="V-KV8dHxOfstRU11FW4F-203" value="" style="endArrow=none;html=1;rounded=0;" parent="1" edge="1">
          <mxGeometry width="50" height="50" relative="1" as="geometry">
            <mxPoint x="661" y="335" as="sourcePoint" />
            <mxPoint x="679" y="335" as="targetPoint" />
          </mxGeometry>
        </mxCell>
        <mxCell id="V-KV8dHxOfstRU11FW4F-204" value="" style="endArrow=none;html=1;rounded=0;" parent="1" edge="1">
          <mxGeometry width="50" height="50" relative="1" as="geometry">
            <mxPoint x="661" y="342" as="sourcePoint" />
            <mxPoint x="679" y="342" as="targetPoint" />
          </mxGeometry>
        </mxCell>
        <mxCell id="V-KV8dHxOfstRU11FW4F-205" value="" style="endArrow=none;html=1;rounded=0;" parent="1" edge="1">
          <mxGeometry width="50" height="50" relative="1" as="geometry">
            <mxPoint x="574" y="316.83" as="sourcePoint" />
            <mxPoint x="592" y="316.83" as="targetPoint" />
          </mxGeometry>
        </mxCell>
        <mxCell id="V-KV8dHxOfstRU11FW4F-206" value="" style="endArrow=none;html=1;rounded=0;" parent="1" edge="1">
          <mxGeometry width="50" height="50" relative="1" as="geometry">
            <mxPoint x="574" y="322.83" as="sourcePoint" />
            <mxPoint x="592" y="322.83" as="targetPoint" />
          </mxGeometry>
        </mxCell>
        <mxCell id="V-KV8dHxOfstRU11FW4F-207" value="" style="endArrow=none;html=1;rounded=0;" parent="1" edge="1">
          <mxGeometry width="50" height="50" relative="1" as="geometry">
            <mxPoint x="574" y="329.83" as="sourcePoint" />
            <mxPoint x="592" y="329.83" as="targetPoint" />
          </mxGeometry>
        </mxCell>
        <mxCell id="V-KV8dHxOfstRU11FW4F-208" value="" style="endArrow=none;html=1;rounded=0;" parent="1" edge="1">
          <mxGeometry width="50" height="50" relative="1" as="geometry">
            <mxPoint x="574" y="335.83" as="sourcePoint" />
            <mxPoint x="592" y="335.83" as="targetPoint" />
          </mxGeometry>
        </mxCell>
        <mxCell id="V-KV8dHxOfstRU11FW4F-209" value="" style="endArrow=none;html=1;rounded=0;" parent="1" edge="1">
          <mxGeometry width="50" height="50" relative="1" as="geometry">
            <mxPoint x="574" y="342.83" as="sourcePoint" />
            <mxPoint x="592" y="342.83" as="targetPoint" />
          </mxGeometry>
        </mxCell>
        <mxCell id="V-KV8dHxOfstRU11FW4F-210" value="" style="endArrow=none;html=1;rounded=0;" parent="1" edge="1">
          <mxGeometry width="50" height="50" relative="1" as="geometry">
            <mxPoint x="642.36" y="370" as="sourcePoint" />
            <mxPoint x="642.36" y="354" as="targetPoint" />
          </mxGeometry>
        </mxCell>
        <mxCell id="V-KV8dHxOfstRU11FW4F-211" value="" style="endArrow=none;html=1;rounded=0;" parent="1" edge="1">
          <mxGeometry width="50" height="50" relative="1" as="geometry">
            <mxPoint x="634.36" y="370" as="sourcePoint" />
            <mxPoint x="634.36" y="354" as="targetPoint" />
          </mxGeometry>
        </mxCell>
        <mxCell id="V-KV8dHxOfstRU11FW4F-212" value="" style="endArrow=none;html=1;rounded=0;" parent="1" edge="1">
          <mxGeometry width="50" height="50" relative="1" as="geometry">
            <mxPoint x="626.36" y="370" as="sourcePoint" />
            <mxPoint x="626.36" y="354" as="targetPoint" />
          </mxGeometry>
        </mxCell>
        <mxCell id="V-KV8dHxOfstRU11FW4F-213" value="" style="endArrow=none;html=1;rounded=0;" parent="1" edge="1">
          <mxGeometry width="50" height="50" relative="1" as="geometry">
            <mxPoint x="618.36" y="370" as="sourcePoint" />
            <mxPoint x="618.36" y="354" as="targetPoint" />
          </mxGeometry>
        </mxCell>
        <mxCell id="V-KV8dHxOfstRU11FW4F-214" value="" style="endArrow=none;html=1;rounded=0;" parent="1" edge="1">
          <mxGeometry width="50" height="50" relative="1" as="geometry">
            <mxPoint x="610.36" y="370" as="sourcePoint" />
            <mxPoint x="610.36" y="354" as="targetPoint" />
          </mxGeometry>
        </mxCell>
        <mxCell id="V-KV8dHxOfstRU11FW4F-215" value="" style="endArrow=none;html=1;rounded=0;" parent="1" edge="1">
          <mxGeometry width="50" height="50" relative="1" as="geometry">
            <mxPoint x="642.36" y="306" as="sourcePoint" />
            <mxPoint x="642.36" y="290" as="targetPoint" />
          </mxGeometry>
        </mxCell>
        <mxCell id="V-KV8dHxOfstRU11FW4F-216" value="" style="endArrow=none;html=1;rounded=0;" parent="1" edge="1">
          <mxGeometry width="50" height="50" relative="1" as="geometry">
            <mxPoint x="634.36" y="306" as="sourcePoint" />
            <mxPoint x="634.36" y="290" as="targetPoint" />
          </mxGeometry>
        </mxCell>
        <mxCell id="V-KV8dHxOfstRU11FW4F-217" value="" style="endArrow=none;html=1;rounded=0;" parent="1" edge="1">
          <mxGeometry width="50" height="50" relative="1" as="geometry">
            <mxPoint x="626.36" y="306" as="sourcePoint" />
            <mxPoint x="626.36" y="290" as="targetPoint" />
          </mxGeometry>
        </mxCell>
        <mxCell id="V-KV8dHxOfstRU11FW4F-218" value="" style="endArrow=none;html=1;rounded=0;" parent="1" edge="1">
          <mxGeometry width="50" height="50" relative="1" as="geometry">
            <mxPoint x="618.36" y="306" as="sourcePoint" />
            <mxPoint x="618.36" y="290" as="targetPoint" />
          </mxGeometry>
        </mxCell>
        <mxCell id="V-KV8dHxOfstRU11FW4F-219" value="" style="endArrow=none;html=1;rounded=0;" parent="1" edge="1">
          <mxGeometry width="50" height="50" relative="1" as="geometry">
            <mxPoint x="610.36" y="306" as="sourcePoint" />
            <mxPoint x="610.36" y="290" as="targetPoint" />
          </mxGeometry>
        </mxCell>
        <mxCell id="V-KV8dHxOfstRU11FW4F-221" value="&lt;b&gt;&lt;font style=&quot;font-size: 14px;&quot; face=&quot;Verdana&quot;&gt;CPU&lt;/font&gt;&lt;/b&gt;" style="rounded=0;whiteSpace=wrap;html=1;fillColor=#f5f5f5;fontColor=#333333;strokeColor=#666666;" parent="1" vertex="1">
          <mxGeometry x="474" y="393" width="69" height="48" as="geometry" />
        </mxCell>
        <mxCell id="V-KV8dHxOfstRU11FW4F-222" value="" style="endArrow=none;html=1;rounded=0;" parent="1" edge="1">
          <mxGeometry width="50" height="50" relative="1" as="geometry">
            <mxPoint x="543" y="403" as="sourcePoint" />
            <mxPoint x="561" y="403" as="targetPoint" />
          </mxGeometry>
        </mxCell>
        <mxCell id="V-KV8dHxOfstRU11FW4F-223" value="" style="endArrow=none;html=1;rounded=0;" parent="1" edge="1">
          <mxGeometry width="50" height="50" relative="1" as="geometry">
            <mxPoint x="543" y="409" as="sourcePoint" />
            <mxPoint x="561" y="409" as="targetPoint" />
          </mxGeometry>
        </mxCell>
        <mxCell id="V-KV8dHxOfstRU11FW4F-224" value="" style="endArrow=none;html=1;rounded=0;" parent="1" edge="1">
          <mxGeometry width="50" height="50" relative="1" as="geometry">
            <mxPoint x="543" y="416" as="sourcePoint" />
            <mxPoint x="561" y="416" as="targetPoint" />
          </mxGeometry>
        </mxCell>
        <mxCell id="V-KV8dHxOfstRU11FW4F-225" value="" style="endArrow=none;html=1;rounded=0;" parent="1" edge="1">
          <mxGeometry width="50" height="50" relative="1" as="geometry">
            <mxPoint x="543" y="422" as="sourcePoint" />
            <mxPoint x="561" y="422" as="targetPoint" />
          </mxGeometry>
        </mxCell>
        <mxCell id="V-KV8dHxOfstRU11FW4F-226" value="" style="endArrow=none;html=1;rounded=0;" parent="1" edge="1">
          <mxGeometry width="50" height="50" relative="1" as="geometry">
            <mxPoint x="543" y="429" as="sourcePoint" />
            <mxPoint x="561" y="429" as="targetPoint" />
          </mxGeometry>
        </mxCell>
        <mxCell id="V-KV8dHxOfstRU11FW4F-227" value="" style="endArrow=none;html=1;rounded=0;" parent="1" edge="1">
          <mxGeometry width="50" height="50" relative="1" as="geometry">
            <mxPoint x="456" y="403.83" as="sourcePoint" />
            <mxPoint x="474" y="403.83" as="targetPoint" />
          </mxGeometry>
        </mxCell>
        <mxCell id="V-KV8dHxOfstRU11FW4F-228" value="" style="endArrow=none;html=1;rounded=0;" parent="1" edge="1">
          <mxGeometry width="50" height="50" relative="1" as="geometry">
            <mxPoint x="456" y="409.83" as="sourcePoint" />
            <mxPoint x="474" y="409.83" as="targetPoint" />
          </mxGeometry>
        </mxCell>
        <mxCell id="V-KV8dHxOfstRU11FW4F-229" value="" style="endArrow=none;html=1;rounded=0;" parent="1" edge="1">
          <mxGeometry width="50" height="50" relative="1" as="geometry">
            <mxPoint x="456" y="416.83" as="sourcePoint" />
            <mxPoint x="474" y="416.83" as="targetPoint" />
          </mxGeometry>
        </mxCell>
        <mxCell id="V-KV8dHxOfstRU11FW4F-230" value="" style="endArrow=none;html=1;rounded=0;" parent="1" edge="1">
          <mxGeometry width="50" height="50" relative="1" as="geometry">
            <mxPoint x="456" y="422.83" as="sourcePoint" />
            <mxPoint x="474" y="422.83" as="targetPoint" />
          </mxGeometry>
        </mxCell>
        <mxCell id="V-KV8dHxOfstRU11FW4F-231" value="" style="endArrow=none;html=1;rounded=0;" parent="1" edge="1">
          <mxGeometry width="50" height="50" relative="1" as="geometry">
            <mxPoint x="456" y="429.83" as="sourcePoint" />
            <mxPoint x="474" y="429.83" as="targetPoint" />
          </mxGeometry>
        </mxCell>
        <mxCell id="V-KV8dHxOfstRU11FW4F-232" value="" style="endArrow=none;html=1;rounded=0;" parent="1" edge="1">
          <mxGeometry width="50" height="50" relative="1" as="geometry">
            <mxPoint x="524.36" y="457" as="sourcePoint" />
            <mxPoint x="524.36" y="441" as="targetPoint" />
          </mxGeometry>
        </mxCell>
        <mxCell id="V-KV8dHxOfstRU11FW4F-233" value="" style="endArrow=none;html=1;rounded=0;" parent="1" edge="1">
          <mxGeometry width="50" height="50" relative="1" as="geometry">
            <mxPoint x="516.36" y="457" as="sourcePoint" />
            <mxPoint x="516.36" y="441" as="targetPoint" />
          </mxGeometry>
        </mxCell>
        <mxCell id="V-KV8dHxOfstRU11FW4F-234" value="" style="endArrow=none;html=1;rounded=0;" parent="1" edge="1">
          <mxGeometry width="50" height="50" relative="1" as="geometry">
            <mxPoint x="508.36" y="457" as="sourcePoint" />
            <mxPoint x="508.36" y="441" as="targetPoint" />
          </mxGeometry>
        </mxCell>
        <mxCell id="V-KV8dHxOfstRU11FW4F-235" value="" style="endArrow=none;html=1;rounded=0;" parent="1" edge="1">
          <mxGeometry width="50" height="50" relative="1" as="geometry">
            <mxPoint x="500.36" y="457" as="sourcePoint" />
            <mxPoint x="500.36" y="441" as="targetPoint" />
          </mxGeometry>
        </mxCell>
        <mxCell id="V-KV8dHxOfstRU11FW4F-236" value="" style="endArrow=none;html=1;rounded=0;" parent="1" edge="1">
          <mxGeometry width="50" height="50" relative="1" as="geometry">
            <mxPoint x="492.36" y="457" as="sourcePoint" />
            <mxPoint x="492.36" y="441" as="targetPoint" />
          </mxGeometry>
        </mxCell>
        <mxCell id="V-KV8dHxOfstRU11FW4F-237" value="" style="endArrow=none;html=1;rounded=0;" parent="1" edge="1">
          <mxGeometry width="50" height="50" relative="1" as="geometry">
            <mxPoint x="524.36" y="393" as="sourcePoint" />
            <mxPoint x="524.36" y="377" as="targetPoint" />
          </mxGeometry>
        </mxCell>
        <mxCell id="V-KV8dHxOfstRU11FW4F-238" value="" style="endArrow=none;html=1;rounded=0;" parent="1" edge="1">
          <mxGeometry width="50" height="50" relative="1" as="geometry">
            <mxPoint x="516.36" y="393" as="sourcePoint" />
            <mxPoint x="516.36" y="377" as="targetPoint" />
          </mxGeometry>
        </mxCell>
        <mxCell id="V-KV8dHxOfstRU11FW4F-239" value="" style="endArrow=none;html=1;rounded=0;" parent="1" edge="1">
          <mxGeometry width="50" height="50" relative="1" as="geometry">
            <mxPoint x="508.36" y="393" as="sourcePoint" />
            <mxPoint x="508.36" y="377" as="targetPoint" />
          </mxGeometry>
        </mxCell>
        <mxCell id="V-KV8dHxOfstRU11FW4F-240" value="" style="endArrow=none;html=1;rounded=0;" parent="1" edge="1">
          <mxGeometry width="50" height="50" relative="1" as="geometry">
            <mxPoint x="500.36" y="393" as="sourcePoint" />
            <mxPoint x="500.36" y="377" as="targetPoint" />
          </mxGeometry>
        </mxCell>
        <mxCell id="V-KV8dHxOfstRU11FW4F-241" value="" style="endArrow=none;html=1;rounded=0;" parent="1" edge="1">
          <mxGeometry width="50" height="50" relative="1" as="geometry">
            <mxPoint x="492.36" y="393" as="sourcePoint" />
            <mxPoint x="492.36" y="377" as="targetPoint" />
          </mxGeometry>
        </mxCell>
        <mxCell id="V-KV8dHxOfstRU11FW4F-242" value="&lt;b&gt;&lt;font style=&quot;font-size: 14px;&quot; face=&quot;Verdana&quot;&gt;CPU&lt;/font&gt;&lt;/b&gt;" style="rounded=0;whiteSpace=wrap;html=1;fillColor=#f5f5f5;fontColor=#333333;strokeColor=#666666;" parent="1" vertex="1">
          <mxGeometry x="592" y="393" width="69" height="48" as="geometry" />
        </mxCell>
        <mxCell id="V-KV8dHxOfstRU11FW4F-243" value="" style="endArrow=none;html=1;rounded=0;" parent="1" edge="1">
          <mxGeometry width="50" height="50" relative="1" as="geometry">
            <mxPoint x="661" y="403" as="sourcePoint" />
            <mxPoint x="679" y="403" as="targetPoint" />
          </mxGeometry>
        </mxCell>
        <mxCell id="V-KV8dHxOfstRU11FW4F-244" value="" style="endArrow=none;html=1;rounded=0;" parent="1" edge="1">
          <mxGeometry width="50" height="50" relative="1" as="geometry">
            <mxPoint x="661" y="409" as="sourcePoint" />
            <mxPoint x="679" y="409" as="targetPoint" />
          </mxGeometry>
        </mxCell>
        <mxCell id="V-KV8dHxOfstRU11FW4F-245" value="" style="endArrow=none;html=1;rounded=0;" parent="1" edge="1">
          <mxGeometry width="50" height="50" relative="1" as="geometry">
            <mxPoint x="661" y="416" as="sourcePoint" />
            <mxPoint x="679" y="416" as="targetPoint" />
          </mxGeometry>
        </mxCell>
        <mxCell id="V-KV8dHxOfstRU11FW4F-246" value="" style="endArrow=none;html=1;rounded=0;" parent="1" edge="1">
          <mxGeometry width="50" height="50" relative="1" as="geometry">
            <mxPoint x="661" y="422" as="sourcePoint" />
            <mxPoint x="679" y="422" as="targetPoint" />
          </mxGeometry>
        </mxCell>
        <mxCell id="V-KV8dHxOfstRU11FW4F-247" value="" style="endArrow=none;html=1;rounded=0;" parent="1" edge="1">
          <mxGeometry width="50" height="50" relative="1" as="geometry">
            <mxPoint x="661" y="429" as="sourcePoint" />
            <mxPoint x="679" y="429" as="targetPoint" />
          </mxGeometry>
        </mxCell>
        <mxCell id="V-KV8dHxOfstRU11FW4F-248" value="" style="endArrow=none;html=1;rounded=0;" parent="1" edge="1">
          <mxGeometry width="50" height="50" relative="1" as="geometry">
            <mxPoint x="574" y="403.83" as="sourcePoint" />
            <mxPoint x="592" y="403.83" as="targetPoint" />
          </mxGeometry>
        </mxCell>
        <mxCell id="V-KV8dHxOfstRU11FW4F-249" value="" style="endArrow=none;html=1;rounded=0;" parent="1" edge="1">
          <mxGeometry width="50" height="50" relative="1" as="geometry">
            <mxPoint x="574" y="409.83" as="sourcePoint" />
            <mxPoint x="592" y="409.83" as="targetPoint" />
          </mxGeometry>
        </mxCell>
        <mxCell id="V-KV8dHxOfstRU11FW4F-250" value="" style="endArrow=none;html=1;rounded=0;" parent="1" edge="1">
          <mxGeometry width="50" height="50" relative="1" as="geometry">
            <mxPoint x="574" y="416.83" as="sourcePoint" />
            <mxPoint x="592" y="416.83" as="targetPoint" />
          </mxGeometry>
        </mxCell>
        <mxCell id="V-KV8dHxOfstRU11FW4F-251" value="" style="endArrow=none;html=1;rounded=0;" parent="1" edge="1">
          <mxGeometry width="50" height="50" relative="1" as="geometry">
            <mxPoint x="574" y="422.83" as="sourcePoint" />
            <mxPoint x="592" y="422.83" as="targetPoint" />
          </mxGeometry>
        </mxCell>
        <mxCell id="V-KV8dHxOfstRU11FW4F-252" value="" style="endArrow=none;html=1;rounded=0;" parent="1" edge="1">
          <mxGeometry width="50" height="50" relative="1" as="geometry">
            <mxPoint x="574" y="429.83" as="sourcePoint" />
            <mxPoint x="592" y="429.83" as="targetPoint" />
          </mxGeometry>
        </mxCell>
        <mxCell id="V-KV8dHxOfstRU11FW4F-253" value="" style="endArrow=none;html=1;rounded=0;" parent="1" edge="1">
          <mxGeometry width="50" height="50" relative="1" as="geometry">
            <mxPoint x="642.36" y="457" as="sourcePoint" />
            <mxPoint x="642.36" y="441" as="targetPoint" />
          </mxGeometry>
        </mxCell>
        <mxCell id="V-KV8dHxOfstRU11FW4F-254" value="" style="endArrow=none;html=1;rounded=0;" parent="1" edge="1">
          <mxGeometry width="50" height="50" relative="1" as="geometry">
            <mxPoint x="634.36" y="457" as="sourcePoint" />
            <mxPoint x="634.36" y="441" as="targetPoint" />
          </mxGeometry>
        </mxCell>
        <mxCell id="V-KV8dHxOfstRU11FW4F-255" value="" style="endArrow=none;html=1;rounded=0;" parent="1" edge="1">
          <mxGeometry width="50" height="50" relative="1" as="geometry">
            <mxPoint x="626.36" y="457" as="sourcePoint" />
            <mxPoint x="626.36" y="441" as="targetPoint" />
          </mxGeometry>
        </mxCell>
        <mxCell id="V-KV8dHxOfstRU11FW4F-256" value="" style="endArrow=none;html=1;rounded=0;" parent="1" edge="1">
          <mxGeometry width="50" height="50" relative="1" as="geometry">
            <mxPoint x="618.36" y="457" as="sourcePoint" />
            <mxPoint x="618.36" y="441" as="targetPoint" />
          </mxGeometry>
        </mxCell>
        <mxCell id="V-KV8dHxOfstRU11FW4F-257" value="" style="endArrow=none;html=1;rounded=0;" parent="1" edge="1">
          <mxGeometry width="50" height="50" relative="1" as="geometry">
            <mxPoint x="610.36" y="457" as="sourcePoint" />
            <mxPoint x="610.36" y="441" as="targetPoint" />
          </mxGeometry>
        </mxCell>
        <mxCell id="V-KV8dHxOfstRU11FW4F-258" value="" style="endArrow=none;html=1;rounded=0;" parent="1" edge="1">
          <mxGeometry width="50" height="50" relative="1" as="geometry">
            <mxPoint x="642.36" y="393" as="sourcePoint" />
            <mxPoint x="642.36" y="377" as="targetPoint" />
          </mxGeometry>
        </mxCell>
        <mxCell id="V-KV8dHxOfstRU11FW4F-259" value="" style="endArrow=none;html=1;rounded=0;" parent="1" edge="1">
          <mxGeometry width="50" height="50" relative="1" as="geometry">
            <mxPoint x="634.36" y="393" as="sourcePoint" />
            <mxPoint x="634.36" y="377" as="targetPoint" />
          </mxGeometry>
        </mxCell>
        <mxCell id="V-KV8dHxOfstRU11FW4F-260" value="" style="endArrow=none;html=1;rounded=0;" parent="1" edge="1">
          <mxGeometry width="50" height="50" relative="1" as="geometry">
            <mxPoint x="626.36" y="393" as="sourcePoint" />
            <mxPoint x="626.36" y="377" as="targetPoint" />
          </mxGeometry>
        </mxCell>
        <mxCell id="V-KV8dHxOfstRU11FW4F-261" value="" style="endArrow=none;html=1;rounded=0;" parent="1" edge="1">
          <mxGeometry width="50" height="50" relative="1" as="geometry">
            <mxPoint x="618.36" y="393" as="sourcePoint" />
            <mxPoint x="618.36" y="377" as="targetPoint" />
          </mxGeometry>
        </mxCell>
        <mxCell id="V-KV8dHxOfstRU11FW4F-262" value="" style="endArrow=none;html=1;rounded=0;" parent="1" edge="1">
          <mxGeometry width="50" height="50" relative="1" as="geometry">
            <mxPoint x="610.36" y="393" as="sourcePoint" />
            <mxPoint x="610.36" y="377" as="targetPoint" />
          </mxGeometry>
        </mxCell>
        <mxCell id="V-KV8dHxOfstRU11FW4F-263" value="&lt;font style=&quot;font-size: 18px;&quot;&gt;{&quot;CPU&quot;:6}&lt;/font&gt;" style="text;html=1;align=center;verticalAlign=middle;whiteSpace=wrap;rounded=0;fontFamily=Courier New;fontStyle=1;fontSize=18;" parent="1" vertex="1">
          <mxGeometry x="588" y="127" width="118" height="30" as="geometry" />
        </mxCell>
        <mxCell id="V-KV8dHxOfstRU11FW4F-264" value="" style="rounded=0;whiteSpace=wrap;html=1;" parent="1" vertex="1">
          <mxGeometry x="752" y="127" width="281" height="350" as="geometry" />
        </mxCell>
        <mxCell id="V-KV8dHxOfstRU11FW4F-265" value="" style="rounded=0;whiteSpace=wrap;html=1;fillColor=#fff2cc;strokeColor=#d6b656;" parent="1" vertex="1">
          <mxGeometry x="771" y="195" width="248" height="91" as="geometry" />
        </mxCell>
        <mxCell id="V-KV8dHxOfstRU11FW4F-266" value="&lt;b&gt;&lt;font style=&quot;font-size: 14px;&quot; face=&quot;Verdana&quot;&gt;CPU&lt;/font&gt;&lt;/b&gt;" style="rounded=0;whiteSpace=wrap;html=1;fillColor=#f5f5f5;fontColor=#333333;strokeColor=#666666;" parent="1" vertex="1">
          <mxGeometry x="801" y="219" width="69" height="48" as="geometry" />
        </mxCell>
        <mxCell id="V-KV8dHxOfstRU11FW4F-267" value="" style="endArrow=none;html=1;rounded=0;" parent="1" edge="1">
          <mxGeometry width="50" height="50" relative="1" as="geometry">
            <mxPoint x="870" y="229" as="sourcePoint" />
            <mxPoint x="888" y="229" as="targetPoint" />
          </mxGeometry>
        </mxCell>
        <mxCell id="V-KV8dHxOfstRU11FW4F-268" value="" style="endArrow=none;html=1;rounded=0;" parent="1" edge="1">
          <mxGeometry width="50" height="50" relative="1" as="geometry">
            <mxPoint x="870" y="235" as="sourcePoint" />
            <mxPoint x="888" y="235" as="targetPoint" />
          </mxGeometry>
        </mxCell>
        <mxCell id="V-KV8dHxOfstRU11FW4F-269" value="" style="endArrow=none;html=1;rounded=0;" parent="1" edge="1">
          <mxGeometry width="50" height="50" relative="1" as="geometry">
            <mxPoint x="870" y="242" as="sourcePoint" />
            <mxPoint x="888" y="242" as="targetPoint" />
          </mxGeometry>
        </mxCell>
        <mxCell id="V-KV8dHxOfstRU11FW4F-270" value="" style="endArrow=none;html=1;rounded=0;" parent="1" edge="1">
          <mxGeometry width="50" height="50" relative="1" as="geometry">
            <mxPoint x="870" y="248" as="sourcePoint" />
            <mxPoint x="888" y="248" as="targetPoint" />
          </mxGeometry>
        </mxCell>
        <mxCell id="V-KV8dHxOfstRU11FW4F-271" value="" style="endArrow=none;html=1;rounded=0;" parent="1" edge="1">
          <mxGeometry width="50" height="50" relative="1" as="geometry">
            <mxPoint x="870" y="255" as="sourcePoint" />
            <mxPoint x="888" y="255" as="targetPoint" />
          </mxGeometry>
        </mxCell>
        <mxCell id="V-KV8dHxOfstRU11FW4F-272" value="" style="endArrow=none;html=1;rounded=0;" parent="1" edge="1">
          <mxGeometry width="50" height="50" relative="1" as="geometry">
            <mxPoint x="783" y="229.82999999999998" as="sourcePoint" />
            <mxPoint x="801" y="229.82999999999998" as="targetPoint" />
          </mxGeometry>
        </mxCell>
        <mxCell id="V-KV8dHxOfstRU11FW4F-273" value="" style="endArrow=none;html=1;rounded=0;" parent="1" edge="1">
          <mxGeometry width="50" height="50" relative="1" as="geometry">
            <mxPoint x="783" y="235.82999999999998" as="sourcePoint" />
            <mxPoint x="801" y="235.82999999999998" as="targetPoint" />
          </mxGeometry>
        </mxCell>
        <mxCell id="V-KV8dHxOfstRU11FW4F-274" value="" style="endArrow=none;html=1;rounded=0;" parent="1" edge="1">
          <mxGeometry width="50" height="50" relative="1" as="geometry">
            <mxPoint x="783" y="242.82999999999998" as="sourcePoint" />
            <mxPoint x="801" y="242.82999999999998" as="targetPoint" />
          </mxGeometry>
        </mxCell>
        <mxCell id="V-KV8dHxOfstRU11FW4F-275" value="" style="endArrow=none;html=1;rounded=0;" parent="1" edge="1">
          <mxGeometry width="50" height="50" relative="1" as="geometry">
            <mxPoint x="783" y="248.82999999999998" as="sourcePoint" />
            <mxPoint x="801" y="248.82999999999998" as="targetPoint" />
          </mxGeometry>
        </mxCell>
        <mxCell id="V-KV8dHxOfstRU11FW4F-276" value="" style="endArrow=none;html=1;rounded=0;" parent="1" edge="1">
          <mxGeometry width="50" height="50" relative="1" as="geometry">
            <mxPoint x="783" y="255.82999999999998" as="sourcePoint" />
            <mxPoint x="801" y="255.82999999999998" as="targetPoint" />
          </mxGeometry>
        </mxCell>
        <mxCell id="V-KV8dHxOfstRU11FW4F-277" value="" style="endArrow=none;html=1;rounded=0;" parent="1" edge="1">
          <mxGeometry width="50" height="50" relative="1" as="geometry">
            <mxPoint x="851.36" y="283" as="sourcePoint" />
            <mxPoint x="851.36" y="267" as="targetPoint" />
          </mxGeometry>
        </mxCell>
        <mxCell id="V-KV8dHxOfstRU11FW4F-278" value="" style="endArrow=none;html=1;rounded=0;" parent="1" edge="1">
          <mxGeometry width="50" height="50" relative="1" as="geometry">
            <mxPoint x="843.36" y="283" as="sourcePoint" />
            <mxPoint x="843.36" y="267" as="targetPoint" />
          </mxGeometry>
        </mxCell>
        <mxCell id="V-KV8dHxOfstRU11FW4F-279" value="" style="endArrow=none;html=1;rounded=0;" parent="1" edge="1">
          <mxGeometry width="50" height="50" relative="1" as="geometry">
            <mxPoint x="835.36" y="283" as="sourcePoint" />
            <mxPoint x="835.36" y="267" as="targetPoint" />
          </mxGeometry>
        </mxCell>
        <mxCell id="V-KV8dHxOfstRU11FW4F-280" value="" style="endArrow=none;html=1;rounded=0;" parent="1" edge="1">
          <mxGeometry width="50" height="50" relative="1" as="geometry">
            <mxPoint x="827.36" y="283" as="sourcePoint" />
            <mxPoint x="827.36" y="267" as="targetPoint" />
          </mxGeometry>
        </mxCell>
        <mxCell id="V-KV8dHxOfstRU11FW4F-281" value="" style="endArrow=none;html=1;rounded=0;" parent="1" edge="1">
          <mxGeometry width="50" height="50" relative="1" as="geometry">
            <mxPoint x="819.36" y="283" as="sourcePoint" />
            <mxPoint x="819.36" y="267" as="targetPoint" />
          </mxGeometry>
        </mxCell>
        <mxCell id="V-KV8dHxOfstRU11FW4F-282" value="" style="endArrow=none;html=1;rounded=0;" parent="1" edge="1">
          <mxGeometry width="50" height="50" relative="1" as="geometry">
            <mxPoint x="851.36" y="219" as="sourcePoint" />
            <mxPoint x="851.36" y="203" as="targetPoint" />
          </mxGeometry>
        </mxCell>
        <mxCell id="V-KV8dHxOfstRU11FW4F-283" value="" style="endArrow=none;html=1;rounded=0;" parent="1" edge="1">
          <mxGeometry width="50" height="50" relative="1" as="geometry">
            <mxPoint x="843.36" y="219" as="sourcePoint" />
            <mxPoint x="843.36" y="203" as="targetPoint" />
          </mxGeometry>
        </mxCell>
        <mxCell id="V-KV8dHxOfstRU11FW4F-284" value="" style="endArrow=none;html=1;rounded=0;" parent="1" edge="1">
          <mxGeometry width="50" height="50" relative="1" as="geometry">
            <mxPoint x="835.36" y="219" as="sourcePoint" />
            <mxPoint x="835.36" y="203" as="targetPoint" />
          </mxGeometry>
        </mxCell>
        <mxCell id="V-KV8dHxOfstRU11FW4F-285" value="" style="endArrow=none;html=1;rounded=0;" parent="1" edge="1">
          <mxGeometry width="50" height="50" relative="1" as="geometry">
            <mxPoint x="827.36" y="219" as="sourcePoint" />
            <mxPoint x="827.36" y="203" as="targetPoint" />
          </mxGeometry>
        </mxCell>
        <mxCell id="V-KV8dHxOfstRU11FW4F-286" value="" style="endArrow=none;html=1;rounded=0;" parent="1" edge="1">
          <mxGeometry width="50" height="50" relative="1" as="geometry">
            <mxPoint x="819.36" y="219" as="sourcePoint" />
            <mxPoint x="819.36" y="203" as="targetPoint" />
          </mxGeometry>
        </mxCell>
        <mxCell id="V-KV8dHxOfstRU11FW4F-287" value="&lt;b&gt;&lt;font style=&quot;font-size: 14px;&quot; face=&quot;Verdana&quot;&gt;CPU&lt;/font&gt;&lt;/b&gt;" style="rounded=0;whiteSpace=wrap;html=1;fillColor=#f5f5f5;fontColor=#333333;strokeColor=#666666;" parent="1" vertex="1">
          <mxGeometry x="919" y="219" width="69" height="48" as="geometry" />
        </mxCell>
        <mxCell id="V-KV8dHxOfstRU11FW4F-288" value="" style="endArrow=none;html=1;rounded=0;" parent="1" edge="1">
          <mxGeometry width="50" height="50" relative="1" as="geometry">
            <mxPoint x="988" y="229" as="sourcePoint" />
            <mxPoint x="1006" y="229" as="targetPoint" />
          </mxGeometry>
        </mxCell>
        <mxCell id="V-KV8dHxOfstRU11FW4F-289" value="" style="endArrow=none;html=1;rounded=0;" parent="1" edge="1">
          <mxGeometry width="50" height="50" relative="1" as="geometry">
            <mxPoint x="988" y="235" as="sourcePoint" />
            <mxPoint x="1006" y="235" as="targetPoint" />
          </mxGeometry>
        </mxCell>
        <mxCell id="V-KV8dHxOfstRU11FW4F-290" value="" style="endArrow=none;html=1;rounded=0;" parent="1" edge="1">
          <mxGeometry width="50" height="50" relative="1" as="geometry">
            <mxPoint x="988" y="242" as="sourcePoint" />
            <mxPoint x="1006" y="242" as="targetPoint" />
          </mxGeometry>
        </mxCell>
        <mxCell id="V-KV8dHxOfstRU11FW4F-291" value="" style="endArrow=none;html=1;rounded=0;" parent="1" edge="1">
          <mxGeometry width="50" height="50" relative="1" as="geometry">
            <mxPoint x="988" y="248" as="sourcePoint" />
            <mxPoint x="1006" y="248" as="targetPoint" />
          </mxGeometry>
        </mxCell>
        <mxCell id="V-KV8dHxOfstRU11FW4F-292" value="" style="endArrow=none;html=1;rounded=0;" parent="1" edge="1">
          <mxGeometry width="50" height="50" relative="1" as="geometry">
            <mxPoint x="988" y="255" as="sourcePoint" />
            <mxPoint x="1006" y="255" as="targetPoint" />
          </mxGeometry>
        </mxCell>
        <mxCell id="V-KV8dHxOfstRU11FW4F-293" value="" style="endArrow=none;html=1;rounded=0;" parent="1" edge="1">
          <mxGeometry width="50" height="50" relative="1" as="geometry">
            <mxPoint x="901" y="229.82999999999998" as="sourcePoint" />
            <mxPoint x="919" y="229.82999999999998" as="targetPoint" />
          </mxGeometry>
        </mxCell>
        <mxCell id="V-KV8dHxOfstRU11FW4F-294" value="" style="endArrow=none;html=1;rounded=0;" parent="1" edge="1">
          <mxGeometry width="50" height="50" relative="1" as="geometry">
            <mxPoint x="901" y="235.82999999999998" as="sourcePoint" />
            <mxPoint x="919" y="235.82999999999998" as="targetPoint" />
          </mxGeometry>
        </mxCell>
        <mxCell id="V-KV8dHxOfstRU11FW4F-295" value="" style="endArrow=none;html=1;rounded=0;" parent="1" edge="1">
          <mxGeometry width="50" height="50" relative="1" as="geometry">
            <mxPoint x="901" y="242.82999999999998" as="sourcePoint" />
            <mxPoint x="919" y="242.82999999999998" as="targetPoint" />
          </mxGeometry>
        </mxCell>
        <mxCell id="V-KV8dHxOfstRU11FW4F-296" value="" style="endArrow=none;html=1;rounded=0;" parent="1" edge="1">
          <mxGeometry width="50" height="50" relative="1" as="geometry">
            <mxPoint x="901" y="248.82999999999998" as="sourcePoint" />
            <mxPoint x="919" y="248.82999999999998" as="targetPoint" />
          </mxGeometry>
        </mxCell>
        <mxCell id="V-KV8dHxOfstRU11FW4F-297" value="" style="endArrow=none;html=1;rounded=0;" parent="1" edge="1">
          <mxGeometry width="50" height="50" relative="1" as="geometry">
            <mxPoint x="901" y="255.82999999999998" as="sourcePoint" />
            <mxPoint x="919" y="255.82999999999998" as="targetPoint" />
          </mxGeometry>
        </mxCell>
        <mxCell id="V-KV8dHxOfstRU11FW4F-298" value="" style="endArrow=none;html=1;rounded=0;" parent="1" edge="1">
          <mxGeometry width="50" height="50" relative="1" as="geometry">
            <mxPoint x="969.36" y="283" as="sourcePoint" />
            <mxPoint x="969.36" y="267" as="targetPoint" />
          </mxGeometry>
        </mxCell>
        <mxCell id="V-KV8dHxOfstRU11FW4F-299" value="" style="endArrow=none;html=1;rounded=0;" parent="1" edge="1">
          <mxGeometry width="50" height="50" relative="1" as="geometry">
            <mxPoint x="961.36" y="283" as="sourcePoint" />
            <mxPoint x="961.36" y="267" as="targetPoint" />
          </mxGeometry>
        </mxCell>
        <mxCell id="V-KV8dHxOfstRU11FW4F-300" value="" style="endArrow=none;html=1;rounded=0;" parent="1" edge="1">
          <mxGeometry width="50" height="50" relative="1" as="geometry">
            <mxPoint x="953.36" y="283" as="sourcePoint" />
            <mxPoint x="953.36" y="267" as="targetPoint" />
          </mxGeometry>
        </mxCell>
        <mxCell id="V-KV8dHxOfstRU11FW4F-301" value="" style="endArrow=none;html=1;rounded=0;" parent="1" edge="1">
          <mxGeometry width="50" height="50" relative="1" as="geometry">
            <mxPoint x="945.36" y="283" as="sourcePoint" />
            <mxPoint x="945.36" y="267" as="targetPoint" />
          </mxGeometry>
        </mxCell>
        <mxCell id="V-KV8dHxOfstRU11FW4F-302" value="" style="endArrow=none;html=1;rounded=0;" parent="1" edge="1">
          <mxGeometry width="50" height="50" relative="1" as="geometry">
            <mxPoint x="937.36" y="283" as="sourcePoint" />
            <mxPoint x="937.36" y="267" as="targetPoint" />
          </mxGeometry>
        </mxCell>
        <mxCell id="V-KV8dHxOfstRU11FW4F-303" value="" style="endArrow=none;html=1;rounded=0;" parent="1" edge="1">
          <mxGeometry width="50" height="50" relative="1" as="geometry">
            <mxPoint x="969.36" y="219" as="sourcePoint" />
            <mxPoint x="969.36" y="203" as="targetPoint" />
          </mxGeometry>
        </mxCell>
        <mxCell id="V-KV8dHxOfstRU11FW4F-304" value="" style="endArrow=none;html=1;rounded=0;" parent="1" edge="1">
          <mxGeometry width="50" height="50" relative="1" as="geometry">
            <mxPoint x="961.36" y="219" as="sourcePoint" />
            <mxPoint x="961.36" y="203" as="targetPoint" />
          </mxGeometry>
        </mxCell>
        <mxCell id="V-KV8dHxOfstRU11FW4F-305" value="" style="endArrow=none;html=1;rounded=0;" parent="1" edge="1">
          <mxGeometry width="50" height="50" relative="1" as="geometry">
            <mxPoint x="953.36" y="219" as="sourcePoint" />
            <mxPoint x="953.36" y="203" as="targetPoint" />
          </mxGeometry>
        </mxCell>
        <mxCell id="V-KV8dHxOfstRU11FW4F-306" value="" style="endArrow=none;html=1;rounded=0;" parent="1" edge="1">
          <mxGeometry width="50" height="50" relative="1" as="geometry">
            <mxPoint x="945.36" y="219" as="sourcePoint" />
            <mxPoint x="945.36" y="203" as="targetPoint" />
          </mxGeometry>
        </mxCell>
        <mxCell id="V-KV8dHxOfstRU11FW4F-307" value="" style="endArrow=none;html=1;rounded=0;" parent="1" edge="1">
          <mxGeometry width="50" height="50" relative="1" as="geometry">
            <mxPoint x="937.36" y="219" as="sourcePoint" />
            <mxPoint x="937.36" y="203" as="targetPoint" />
          </mxGeometry>
        </mxCell>
        <mxCell id="V-KV8dHxOfstRU11FW4F-309" value="&lt;b&gt;&lt;font style=&quot;font-size: 14px;&quot; face=&quot;Verdana&quot;&gt;CPU&lt;/font&gt;&lt;/b&gt;" style="rounded=0;whiteSpace=wrap;html=1;fillColor=#f5f5f5;fontColor=#333333;strokeColor=#666666;" parent="1" vertex="1">
          <mxGeometry x="801" y="306" width="69" height="48" as="geometry" />
        </mxCell>
        <mxCell id="V-KV8dHxOfstRU11FW4F-310" value="" style="endArrow=none;html=1;rounded=0;" parent="1" edge="1">
          <mxGeometry width="50" height="50" relative="1" as="geometry">
            <mxPoint x="870" y="316" as="sourcePoint" />
            <mxPoint x="888" y="316" as="targetPoint" />
          </mxGeometry>
        </mxCell>
        <mxCell id="V-KV8dHxOfstRU11FW4F-311" value="" style="endArrow=none;html=1;rounded=0;" parent="1" edge="1">
          <mxGeometry width="50" height="50" relative="1" as="geometry">
            <mxPoint x="870" y="322" as="sourcePoint" />
            <mxPoint x="888" y="322" as="targetPoint" />
          </mxGeometry>
        </mxCell>
        <mxCell id="V-KV8dHxOfstRU11FW4F-312" value="" style="endArrow=none;html=1;rounded=0;" parent="1" edge="1">
          <mxGeometry width="50" height="50" relative="1" as="geometry">
            <mxPoint x="870" y="329" as="sourcePoint" />
            <mxPoint x="888" y="329" as="targetPoint" />
          </mxGeometry>
        </mxCell>
        <mxCell id="V-KV8dHxOfstRU11FW4F-313" value="" style="endArrow=none;html=1;rounded=0;" parent="1" edge="1">
          <mxGeometry width="50" height="50" relative="1" as="geometry">
            <mxPoint x="870" y="335" as="sourcePoint" />
            <mxPoint x="888" y="335" as="targetPoint" />
          </mxGeometry>
        </mxCell>
        <mxCell id="V-KV8dHxOfstRU11FW4F-314" value="" style="endArrow=none;html=1;rounded=0;" parent="1" edge="1">
          <mxGeometry width="50" height="50" relative="1" as="geometry">
            <mxPoint x="870" y="342" as="sourcePoint" />
            <mxPoint x="888" y="342" as="targetPoint" />
          </mxGeometry>
        </mxCell>
        <mxCell id="V-KV8dHxOfstRU11FW4F-315" value="" style="endArrow=none;html=1;rounded=0;" parent="1" edge="1">
          <mxGeometry width="50" height="50" relative="1" as="geometry">
            <mxPoint x="783" y="316.83" as="sourcePoint" />
            <mxPoint x="801" y="316.83" as="targetPoint" />
          </mxGeometry>
        </mxCell>
        <mxCell id="V-KV8dHxOfstRU11FW4F-316" value="" style="endArrow=none;html=1;rounded=0;" parent="1" edge="1">
          <mxGeometry width="50" height="50" relative="1" as="geometry">
            <mxPoint x="783" y="322.83" as="sourcePoint" />
            <mxPoint x="801" y="322.83" as="targetPoint" />
          </mxGeometry>
        </mxCell>
        <mxCell id="V-KV8dHxOfstRU11FW4F-317" value="" style="endArrow=none;html=1;rounded=0;" parent="1" edge="1">
          <mxGeometry width="50" height="50" relative="1" as="geometry">
            <mxPoint x="783" y="329.83" as="sourcePoint" />
            <mxPoint x="801" y="329.83" as="targetPoint" />
          </mxGeometry>
        </mxCell>
        <mxCell id="V-KV8dHxOfstRU11FW4F-318" value="" style="endArrow=none;html=1;rounded=0;" parent="1" edge="1">
          <mxGeometry width="50" height="50" relative="1" as="geometry">
            <mxPoint x="783" y="335.83" as="sourcePoint" />
            <mxPoint x="801" y="335.83" as="targetPoint" />
          </mxGeometry>
        </mxCell>
        <mxCell id="V-KV8dHxOfstRU11FW4F-319" value="" style="endArrow=none;html=1;rounded=0;" parent="1" edge="1">
          <mxGeometry width="50" height="50" relative="1" as="geometry">
            <mxPoint x="783" y="342.83" as="sourcePoint" />
            <mxPoint x="801" y="342.83" as="targetPoint" />
          </mxGeometry>
        </mxCell>
        <mxCell id="V-KV8dHxOfstRU11FW4F-320" value="" style="endArrow=none;html=1;rounded=0;" parent="1" edge="1">
          <mxGeometry width="50" height="50" relative="1" as="geometry">
            <mxPoint x="851.36" y="370" as="sourcePoint" />
            <mxPoint x="851.36" y="354" as="targetPoint" />
          </mxGeometry>
        </mxCell>
        <mxCell id="V-KV8dHxOfstRU11FW4F-321" value="" style="endArrow=none;html=1;rounded=0;" parent="1" edge="1">
          <mxGeometry width="50" height="50" relative="1" as="geometry">
            <mxPoint x="843.36" y="370" as="sourcePoint" />
            <mxPoint x="843.36" y="354" as="targetPoint" />
          </mxGeometry>
        </mxCell>
        <mxCell id="V-KV8dHxOfstRU11FW4F-322" value="" style="endArrow=none;html=1;rounded=0;" parent="1" edge="1">
          <mxGeometry width="50" height="50" relative="1" as="geometry">
            <mxPoint x="835.36" y="370" as="sourcePoint" />
            <mxPoint x="835.36" y="354" as="targetPoint" />
          </mxGeometry>
        </mxCell>
        <mxCell id="V-KV8dHxOfstRU11FW4F-323" value="" style="endArrow=none;html=1;rounded=0;" parent="1" edge="1">
          <mxGeometry width="50" height="50" relative="1" as="geometry">
            <mxPoint x="827.36" y="370" as="sourcePoint" />
            <mxPoint x="827.36" y="354" as="targetPoint" />
          </mxGeometry>
        </mxCell>
        <mxCell id="V-KV8dHxOfstRU11FW4F-324" value="" style="endArrow=none;html=1;rounded=0;" parent="1" edge="1">
          <mxGeometry width="50" height="50" relative="1" as="geometry">
            <mxPoint x="819.36" y="370" as="sourcePoint" />
            <mxPoint x="819.36" y="354" as="targetPoint" />
          </mxGeometry>
        </mxCell>
        <mxCell id="V-KV8dHxOfstRU11FW4F-325" value="" style="endArrow=none;html=1;rounded=0;" parent="1" edge="1">
          <mxGeometry width="50" height="50" relative="1" as="geometry">
            <mxPoint x="851.36" y="306" as="sourcePoint" />
            <mxPoint x="851.36" y="290" as="targetPoint" />
          </mxGeometry>
        </mxCell>
        <mxCell id="V-KV8dHxOfstRU11FW4F-326" value="" style="endArrow=none;html=1;rounded=0;" parent="1" edge="1">
          <mxGeometry width="50" height="50" relative="1" as="geometry">
            <mxPoint x="843.36" y="306" as="sourcePoint" />
            <mxPoint x="843.36" y="290" as="targetPoint" />
          </mxGeometry>
        </mxCell>
        <mxCell id="V-KV8dHxOfstRU11FW4F-327" value="" style="endArrow=none;html=1;rounded=0;" parent="1" edge="1">
          <mxGeometry width="50" height="50" relative="1" as="geometry">
            <mxPoint x="835.36" y="306" as="sourcePoint" />
            <mxPoint x="835.36" y="290" as="targetPoint" />
          </mxGeometry>
        </mxCell>
        <mxCell id="V-KV8dHxOfstRU11FW4F-328" value="" style="endArrow=none;html=1;rounded=0;" parent="1" edge="1">
          <mxGeometry width="50" height="50" relative="1" as="geometry">
            <mxPoint x="827.36" y="306" as="sourcePoint" />
            <mxPoint x="827.36" y="290" as="targetPoint" />
          </mxGeometry>
        </mxCell>
        <mxCell id="V-KV8dHxOfstRU11FW4F-329" value="" style="endArrow=none;html=1;rounded=0;" parent="1" edge="1">
          <mxGeometry width="50" height="50" relative="1" as="geometry">
            <mxPoint x="819.36" y="306" as="sourcePoint" />
            <mxPoint x="819.36" y="290" as="targetPoint" />
          </mxGeometry>
        </mxCell>
        <mxCell id="V-KV8dHxOfstRU11FW4F-330" value="&lt;b&gt;&lt;font style=&quot;font-size: 14px;&quot; face=&quot;Verdana&quot;&gt;CPU&lt;/font&gt;&lt;/b&gt;" style="rounded=0;whiteSpace=wrap;html=1;fillColor=#f5f5f5;fontColor=#333333;strokeColor=#666666;" parent="1" vertex="1">
          <mxGeometry x="919" y="306" width="69" height="48" as="geometry" />
        </mxCell>
        <mxCell id="V-KV8dHxOfstRU11FW4F-331" value="" style="endArrow=none;html=1;rounded=0;" parent="1" edge="1">
          <mxGeometry width="50" height="50" relative="1" as="geometry">
            <mxPoint x="988" y="316" as="sourcePoint" />
            <mxPoint x="1006" y="316" as="targetPoint" />
          </mxGeometry>
        </mxCell>
        <mxCell id="V-KV8dHxOfstRU11FW4F-332" value="" style="endArrow=none;html=1;rounded=0;" parent="1" edge="1">
          <mxGeometry width="50" height="50" relative="1" as="geometry">
            <mxPoint x="988" y="322" as="sourcePoint" />
            <mxPoint x="1006" y="322" as="targetPoint" />
          </mxGeometry>
        </mxCell>
        <mxCell id="V-KV8dHxOfstRU11FW4F-333" value="" style="endArrow=none;html=1;rounded=0;" parent="1" edge="1">
          <mxGeometry width="50" height="50" relative="1" as="geometry">
            <mxPoint x="988" y="329" as="sourcePoint" />
            <mxPoint x="1006" y="329" as="targetPoint" />
          </mxGeometry>
        </mxCell>
        <mxCell id="V-KV8dHxOfstRU11FW4F-334" value="" style="endArrow=none;html=1;rounded=0;" parent="1" edge="1">
          <mxGeometry width="50" height="50" relative="1" as="geometry">
            <mxPoint x="988" y="335" as="sourcePoint" />
            <mxPoint x="1006" y="335" as="targetPoint" />
          </mxGeometry>
        </mxCell>
        <mxCell id="V-KV8dHxOfstRU11FW4F-335" value="" style="endArrow=none;html=1;rounded=0;" parent="1" edge="1">
          <mxGeometry width="50" height="50" relative="1" as="geometry">
            <mxPoint x="988" y="342" as="sourcePoint" />
            <mxPoint x="1006" y="342" as="targetPoint" />
          </mxGeometry>
        </mxCell>
        <mxCell id="V-KV8dHxOfstRU11FW4F-336" value="" style="endArrow=none;html=1;rounded=0;" parent="1" edge="1">
          <mxGeometry width="50" height="50" relative="1" as="geometry">
            <mxPoint x="901" y="316.83" as="sourcePoint" />
            <mxPoint x="919" y="316.83" as="targetPoint" />
          </mxGeometry>
        </mxCell>
        <mxCell id="V-KV8dHxOfstRU11FW4F-337" value="" style="endArrow=none;html=1;rounded=0;" parent="1" edge="1">
          <mxGeometry width="50" height="50" relative="1" as="geometry">
            <mxPoint x="901" y="322.83" as="sourcePoint" />
            <mxPoint x="919" y="322.83" as="targetPoint" />
          </mxGeometry>
        </mxCell>
        <mxCell id="V-KV8dHxOfstRU11FW4F-338" value="" style="endArrow=none;html=1;rounded=0;" parent="1" edge="1">
          <mxGeometry width="50" height="50" relative="1" as="geometry">
            <mxPoint x="901" y="329.83" as="sourcePoint" />
            <mxPoint x="919" y="329.83" as="targetPoint" />
          </mxGeometry>
        </mxCell>
        <mxCell id="V-KV8dHxOfstRU11FW4F-339" value="" style="endArrow=none;html=1;rounded=0;" parent="1" edge="1">
          <mxGeometry width="50" height="50" relative="1" as="geometry">
            <mxPoint x="901" y="335.83" as="sourcePoint" />
            <mxPoint x="919" y="335.83" as="targetPoint" />
          </mxGeometry>
        </mxCell>
        <mxCell id="V-KV8dHxOfstRU11FW4F-340" value="" style="endArrow=none;html=1;rounded=0;" parent="1" edge="1">
          <mxGeometry width="50" height="50" relative="1" as="geometry">
            <mxPoint x="901" y="342.83" as="sourcePoint" />
            <mxPoint x="919" y="342.83" as="targetPoint" />
          </mxGeometry>
        </mxCell>
        <mxCell id="V-KV8dHxOfstRU11FW4F-341" value="" style="endArrow=none;html=1;rounded=0;" parent="1" edge="1">
          <mxGeometry width="50" height="50" relative="1" as="geometry">
            <mxPoint x="969.36" y="370" as="sourcePoint" />
            <mxPoint x="969.36" y="354" as="targetPoint" />
          </mxGeometry>
        </mxCell>
        <mxCell id="V-KV8dHxOfstRU11FW4F-342" value="" style="endArrow=none;html=1;rounded=0;" parent="1" edge="1">
          <mxGeometry width="50" height="50" relative="1" as="geometry">
            <mxPoint x="961.36" y="370" as="sourcePoint" />
            <mxPoint x="961.36" y="354" as="targetPoint" />
          </mxGeometry>
        </mxCell>
        <mxCell id="V-KV8dHxOfstRU11FW4F-343" value="" style="endArrow=none;html=1;rounded=0;" parent="1" edge="1">
          <mxGeometry width="50" height="50" relative="1" as="geometry">
            <mxPoint x="953.36" y="370" as="sourcePoint" />
            <mxPoint x="953.36" y="354" as="targetPoint" />
          </mxGeometry>
        </mxCell>
        <mxCell id="V-KV8dHxOfstRU11FW4F-344" value="" style="endArrow=none;html=1;rounded=0;" parent="1" edge="1">
          <mxGeometry width="50" height="50" relative="1" as="geometry">
            <mxPoint x="945.36" y="370" as="sourcePoint" />
            <mxPoint x="945.36" y="354" as="targetPoint" />
          </mxGeometry>
        </mxCell>
        <mxCell id="V-KV8dHxOfstRU11FW4F-345" value="" style="endArrow=none;html=1;rounded=0;" parent="1" edge="1">
          <mxGeometry width="50" height="50" relative="1" as="geometry">
            <mxPoint x="937.36" y="370" as="sourcePoint" />
            <mxPoint x="937.36" y="354" as="targetPoint" />
          </mxGeometry>
        </mxCell>
        <mxCell id="V-KV8dHxOfstRU11FW4F-346" value="" style="endArrow=none;html=1;rounded=0;" parent="1" edge="1">
          <mxGeometry width="50" height="50" relative="1" as="geometry">
            <mxPoint x="969.36" y="306" as="sourcePoint" />
            <mxPoint x="969.36" y="290" as="targetPoint" />
          </mxGeometry>
        </mxCell>
        <mxCell id="V-KV8dHxOfstRU11FW4F-347" value="" style="endArrow=none;html=1;rounded=0;" parent="1" edge="1">
          <mxGeometry width="50" height="50" relative="1" as="geometry">
            <mxPoint x="961.36" y="306" as="sourcePoint" />
            <mxPoint x="961.36" y="290" as="targetPoint" />
          </mxGeometry>
        </mxCell>
        <mxCell id="V-KV8dHxOfstRU11FW4F-348" value="" style="endArrow=none;html=1;rounded=0;" parent="1" edge="1">
          <mxGeometry width="50" height="50" relative="1" as="geometry">
            <mxPoint x="953.36" y="306" as="sourcePoint" />
            <mxPoint x="953.36" y="290" as="targetPoint" />
          </mxGeometry>
        </mxCell>
        <mxCell id="V-KV8dHxOfstRU11FW4F-349" value="" style="endArrow=none;html=1;rounded=0;" parent="1" edge="1">
          <mxGeometry width="50" height="50" relative="1" as="geometry">
            <mxPoint x="945.36" y="306" as="sourcePoint" />
            <mxPoint x="945.36" y="290" as="targetPoint" />
          </mxGeometry>
        </mxCell>
        <mxCell id="V-KV8dHxOfstRU11FW4F-350" value="" style="endArrow=none;html=1;rounded=0;" parent="1" edge="1">
          <mxGeometry width="50" height="50" relative="1" as="geometry">
            <mxPoint x="937.36" y="306" as="sourcePoint" />
            <mxPoint x="937.36" y="290" as="targetPoint" />
          </mxGeometry>
        </mxCell>
        <mxCell id="V-KV8dHxOfstRU11FW4F-352" value="&lt;b&gt;&lt;font style=&quot;font-size: 14px;&quot; face=&quot;Verdana&quot;&gt;CPU&lt;/font&gt;&lt;/b&gt;" style="rounded=0;whiteSpace=wrap;html=1;fillColor=#f5f5f5;fontColor=#333333;strokeColor=#666666;" parent="1" vertex="1">
          <mxGeometry x="801" y="393" width="69" height="48" as="geometry" />
        </mxCell>
        <mxCell id="V-KV8dHxOfstRU11FW4F-353" value="" style="endArrow=none;html=1;rounded=0;" parent="1" edge="1">
          <mxGeometry width="50" height="50" relative="1" as="geometry">
            <mxPoint x="870" y="403" as="sourcePoint" />
            <mxPoint x="888" y="403" as="targetPoint" />
          </mxGeometry>
        </mxCell>
        <mxCell id="V-KV8dHxOfstRU11FW4F-354" value="" style="endArrow=none;html=1;rounded=0;" parent="1" edge="1">
          <mxGeometry width="50" height="50" relative="1" as="geometry">
            <mxPoint x="870" y="409" as="sourcePoint" />
            <mxPoint x="888" y="409" as="targetPoint" />
          </mxGeometry>
        </mxCell>
        <mxCell id="V-KV8dHxOfstRU11FW4F-355" value="" style="endArrow=none;html=1;rounded=0;" parent="1" edge="1">
          <mxGeometry width="50" height="50" relative="1" as="geometry">
            <mxPoint x="870" y="416" as="sourcePoint" />
            <mxPoint x="888" y="416" as="targetPoint" />
          </mxGeometry>
        </mxCell>
        <mxCell id="V-KV8dHxOfstRU11FW4F-356" value="" style="endArrow=none;html=1;rounded=0;" parent="1" edge="1">
          <mxGeometry width="50" height="50" relative="1" as="geometry">
            <mxPoint x="870" y="422" as="sourcePoint" />
            <mxPoint x="888" y="422" as="targetPoint" />
          </mxGeometry>
        </mxCell>
        <mxCell id="V-KV8dHxOfstRU11FW4F-357" value="" style="endArrow=none;html=1;rounded=0;" parent="1" edge="1">
          <mxGeometry width="50" height="50" relative="1" as="geometry">
            <mxPoint x="870" y="429" as="sourcePoint" />
            <mxPoint x="888" y="429" as="targetPoint" />
          </mxGeometry>
        </mxCell>
        <mxCell id="V-KV8dHxOfstRU11FW4F-358" value="" style="endArrow=none;html=1;rounded=0;" parent="1" edge="1">
          <mxGeometry width="50" height="50" relative="1" as="geometry">
            <mxPoint x="783" y="403.83" as="sourcePoint" />
            <mxPoint x="801" y="403.83" as="targetPoint" />
          </mxGeometry>
        </mxCell>
        <mxCell id="V-KV8dHxOfstRU11FW4F-359" value="" style="endArrow=none;html=1;rounded=0;" parent="1" edge="1">
          <mxGeometry width="50" height="50" relative="1" as="geometry">
            <mxPoint x="783" y="409.83" as="sourcePoint" />
            <mxPoint x="801" y="409.83" as="targetPoint" />
          </mxGeometry>
        </mxCell>
        <mxCell id="V-KV8dHxOfstRU11FW4F-360" value="" style="endArrow=none;html=1;rounded=0;" parent="1" edge="1">
          <mxGeometry width="50" height="50" relative="1" as="geometry">
            <mxPoint x="783" y="416.83" as="sourcePoint" />
            <mxPoint x="801" y="416.83" as="targetPoint" />
          </mxGeometry>
        </mxCell>
        <mxCell id="V-KV8dHxOfstRU11FW4F-361" value="" style="endArrow=none;html=1;rounded=0;" parent="1" edge="1">
          <mxGeometry width="50" height="50" relative="1" as="geometry">
            <mxPoint x="783" y="422.83" as="sourcePoint" />
            <mxPoint x="801" y="422.83" as="targetPoint" />
          </mxGeometry>
        </mxCell>
        <mxCell id="V-KV8dHxOfstRU11FW4F-362" value="" style="endArrow=none;html=1;rounded=0;" parent="1" edge="1">
          <mxGeometry width="50" height="50" relative="1" as="geometry">
            <mxPoint x="783" y="429.83" as="sourcePoint" />
            <mxPoint x="801" y="429.83" as="targetPoint" />
          </mxGeometry>
        </mxCell>
        <mxCell id="V-KV8dHxOfstRU11FW4F-363" value="" style="endArrow=none;html=1;rounded=0;" parent="1" edge="1">
          <mxGeometry width="50" height="50" relative="1" as="geometry">
            <mxPoint x="851.36" y="457" as="sourcePoint" />
            <mxPoint x="851.36" y="441" as="targetPoint" />
          </mxGeometry>
        </mxCell>
        <mxCell id="V-KV8dHxOfstRU11FW4F-364" value="" style="endArrow=none;html=1;rounded=0;" parent="1" edge="1">
          <mxGeometry width="50" height="50" relative="1" as="geometry">
            <mxPoint x="843.36" y="457" as="sourcePoint" />
            <mxPoint x="843.36" y="441" as="targetPoint" />
          </mxGeometry>
        </mxCell>
        <mxCell id="V-KV8dHxOfstRU11FW4F-365" value="" style="endArrow=none;html=1;rounded=0;" parent="1" edge="1">
          <mxGeometry width="50" height="50" relative="1" as="geometry">
            <mxPoint x="835.36" y="457" as="sourcePoint" />
            <mxPoint x="835.36" y="441" as="targetPoint" />
          </mxGeometry>
        </mxCell>
        <mxCell id="V-KV8dHxOfstRU11FW4F-366" value="" style="endArrow=none;html=1;rounded=0;" parent="1" edge="1">
          <mxGeometry width="50" height="50" relative="1" as="geometry">
            <mxPoint x="827.36" y="457" as="sourcePoint" />
            <mxPoint x="827.36" y="441" as="targetPoint" />
          </mxGeometry>
        </mxCell>
        <mxCell id="V-KV8dHxOfstRU11FW4F-367" value="" style="endArrow=none;html=1;rounded=0;" parent="1" edge="1">
          <mxGeometry width="50" height="50" relative="1" as="geometry">
            <mxPoint x="819.36" y="457" as="sourcePoint" />
            <mxPoint x="819.36" y="441" as="targetPoint" />
          </mxGeometry>
        </mxCell>
        <mxCell id="V-KV8dHxOfstRU11FW4F-368" value="" style="endArrow=none;html=1;rounded=0;" parent="1" edge="1">
          <mxGeometry width="50" height="50" relative="1" as="geometry">
            <mxPoint x="851.36" y="393" as="sourcePoint" />
            <mxPoint x="851.36" y="377" as="targetPoint" />
          </mxGeometry>
        </mxCell>
        <mxCell id="V-KV8dHxOfstRU11FW4F-369" value="" style="endArrow=none;html=1;rounded=0;fillColor=#f5f5f5;strokeColor=#000000;" parent="1" edge="1">
          <mxGeometry width="50" height="50" relative="1" as="geometry">
            <mxPoint x="843.36" y="393" as="sourcePoint" />
            <mxPoint x="843.36" y="377" as="targetPoint" />
          </mxGeometry>
        </mxCell>
        <mxCell id="V-KV8dHxOfstRU11FW4F-370" value="" style="endArrow=none;html=1;rounded=0;" parent="1" edge="1">
          <mxGeometry width="50" height="50" relative="1" as="geometry">
            <mxPoint x="835.36" y="393" as="sourcePoint" />
            <mxPoint x="835.36" y="377" as="targetPoint" />
          </mxGeometry>
        </mxCell>
        <mxCell id="V-KV8dHxOfstRU11FW4F-371" value="" style="endArrow=none;html=1;rounded=0;" parent="1" edge="1">
          <mxGeometry width="50" height="50" relative="1" as="geometry">
            <mxPoint x="827.36" y="393" as="sourcePoint" />
            <mxPoint x="827.36" y="377" as="targetPoint" />
          </mxGeometry>
        </mxCell>
        <mxCell id="V-KV8dHxOfstRU11FW4F-372" value="" style="endArrow=none;html=1;rounded=0;" parent="1" edge="1">
          <mxGeometry width="50" height="50" relative="1" as="geometry">
            <mxPoint x="819.36" y="393" as="sourcePoint" />
            <mxPoint x="819.36" y="377" as="targetPoint" />
          </mxGeometry>
        </mxCell>
        <mxCell id="V-KV8dHxOfstRU11FW4F-373" value="&lt;b&gt;&lt;font style=&quot;font-size: 14px;&quot; face=&quot;Verdana&quot;&gt;CPU&lt;/font&gt;&lt;/b&gt;" style="rounded=0;whiteSpace=wrap;html=1;fillColor=#f5f5f5;fontColor=#333333;strokeColor=#666666;" parent="1" vertex="1">
          <mxGeometry x="919" y="393" width="69" height="48" as="geometry" />
        </mxCell>
        <mxCell id="V-KV8dHxOfstRU11FW4F-374" value="" style="endArrow=none;html=1;rounded=0;" parent="1" edge="1">
          <mxGeometry width="50" height="50" relative="1" as="geometry">
            <mxPoint x="988" y="403" as="sourcePoint" />
            <mxPoint x="1006" y="403" as="targetPoint" />
          </mxGeometry>
        </mxCell>
        <mxCell id="V-KV8dHxOfstRU11FW4F-375" value="" style="endArrow=none;html=1;rounded=0;" parent="1" edge="1">
          <mxGeometry width="50" height="50" relative="1" as="geometry">
            <mxPoint x="988" y="409" as="sourcePoint" />
            <mxPoint x="1006" y="409" as="targetPoint" />
          </mxGeometry>
        </mxCell>
        <mxCell id="V-KV8dHxOfstRU11FW4F-376" value="" style="endArrow=none;html=1;rounded=0;" parent="1" edge="1">
          <mxGeometry width="50" height="50" relative="1" as="geometry">
            <mxPoint x="988" y="416" as="sourcePoint" />
            <mxPoint x="1006" y="416" as="targetPoint" />
          </mxGeometry>
        </mxCell>
        <mxCell id="V-KV8dHxOfstRU11FW4F-377" value="" style="endArrow=none;html=1;rounded=0;" parent="1" edge="1">
          <mxGeometry width="50" height="50" relative="1" as="geometry">
            <mxPoint x="988" y="422" as="sourcePoint" />
            <mxPoint x="1006" y="422" as="targetPoint" />
          </mxGeometry>
        </mxCell>
        <mxCell id="V-KV8dHxOfstRU11FW4F-378" value="" style="endArrow=none;html=1;rounded=0;" parent="1" edge="1">
          <mxGeometry width="50" height="50" relative="1" as="geometry">
            <mxPoint x="988" y="429" as="sourcePoint" />
            <mxPoint x="1006" y="429" as="targetPoint" />
          </mxGeometry>
        </mxCell>
        <mxCell id="V-KV8dHxOfstRU11FW4F-379" value="" style="endArrow=none;html=1;rounded=0;" parent="1" edge="1">
          <mxGeometry width="50" height="50" relative="1" as="geometry">
            <mxPoint x="901" y="403.83" as="sourcePoint" />
            <mxPoint x="919" y="403.83" as="targetPoint" />
          </mxGeometry>
        </mxCell>
        <mxCell id="V-KV8dHxOfstRU11FW4F-380" value="" style="endArrow=none;html=1;rounded=0;" parent="1" edge="1">
          <mxGeometry width="50" height="50" relative="1" as="geometry">
            <mxPoint x="901" y="409.83" as="sourcePoint" />
            <mxPoint x="919" y="409.83" as="targetPoint" />
          </mxGeometry>
        </mxCell>
        <mxCell id="V-KV8dHxOfstRU11FW4F-381" value="" style="endArrow=none;html=1;rounded=0;" parent="1" edge="1">
          <mxGeometry width="50" height="50" relative="1" as="geometry">
            <mxPoint x="901" y="416.83" as="sourcePoint" />
            <mxPoint x="919" y="416.83" as="targetPoint" />
          </mxGeometry>
        </mxCell>
        <mxCell id="V-KV8dHxOfstRU11FW4F-382" value="" style="endArrow=none;html=1;rounded=0;" parent="1" edge="1">
          <mxGeometry width="50" height="50" relative="1" as="geometry">
            <mxPoint x="901" y="422.83" as="sourcePoint" />
            <mxPoint x="919" y="422.83" as="targetPoint" />
          </mxGeometry>
        </mxCell>
        <mxCell id="V-KV8dHxOfstRU11FW4F-383" value="" style="endArrow=none;html=1;rounded=0;" parent="1" edge="1">
          <mxGeometry width="50" height="50" relative="1" as="geometry">
            <mxPoint x="901" y="429.83" as="sourcePoint" />
            <mxPoint x="919" y="429.83" as="targetPoint" />
          </mxGeometry>
        </mxCell>
        <mxCell id="V-KV8dHxOfstRU11FW4F-384" value="" style="endArrow=none;html=1;rounded=0;" parent="1" edge="1">
          <mxGeometry width="50" height="50" relative="1" as="geometry">
            <mxPoint x="969.36" y="457" as="sourcePoint" />
            <mxPoint x="969.36" y="441" as="targetPoint" />
          </mxGeometry>
        </mxCell>
        <mxCell id="V-KV8dHxOfstRU11FW4F-385" value="" style="endArrow=none;html=1;rounded=0;" parent="1" edge="1">
          <mxGeometry width="50" height="50" relative="1" as="geometry">
            <mxPoint x="961.36" y="457" as="sourcePoint" />
            <mxPoint x="961.36" y="441" as="targetPoint" />
          </mxGeometry>
        </mxCell>
        <mxCell id="V-KV8dHxOfstRU11FW4F-386" value="" style="endArrow=none;html=1;rounded=0;" parent="1" edge="1">
          <mxGeometry width="50" height="50" relative="1" as="geometry">
            <mxPoint x="953.36" y="457" as="sourcePoint" />
            <mxPoint x="953.36" y="441" as="targetPoint" />
          </mxGeometry>
        </mxCell>
        <mxCell id="V-KV8dHxOfstRU11FW4F-387" value="" style="endArrow=none;html=1;rounded=0;" parent="1" edge="1">
          <mxGeometry width="50" height="50" relative="1" as="geometry">
            <mxPoint x="945.36" y="457" as="sourcePoint" />
            <mxPoint x="945.36" y="441" as="targetPoint" />
          </mxGeometry>
        </mxCell>
        <mxCell id="V-KV8dHxOfstRU11FW4F-388" value="" style="endArrow=none;html=1;rounded=0;" parent="1" edge="1">
          <mxGeometry width="50" height="50" relative="1" as="geometry">
            <mxPoint x="937.36" y="457" as="sourcePoint" />
            <mxPoint x="937.36" y="441" as="targetPoint" />
          </mxGeometry>
        </mxCell>
        <mxCell id="V-KV8dHxOfstRU11FW4F-389" value="" style="endArrow=none;html=1;rounded=0;" parent="1" edge="1">
          <mxGeometry width="50" height="50" relative="1" as="geometry">
            <mxPoint x="969.36" y="393" as="sourcePoint" />
            <mxPoint x="969.36" y="377" as="targetPoint" />
          </mxGeometry>
        </mxCell>
        <mxCell id="V-KV8dHxOfstRU11FW4F-390" value="" style="endArrow=none;html=1;rounded=0;" parent="1" edge="1">
          <mxGeometry width="50" height="50" relative="1" as="geometry">
            <mxPoint x="961.36" y="393" as="sourcePoint" />
            <mxPoint x="961.36" y="377" as="targetPoint" />
          </mxGeometry>
        </mxCell>
        <mxCell id="V-KV8dHxOfstRU11FW4F-391" value="" style="endArrow=none;html=1;rounded=0;" parent="1" edge="1">
          <mxGeometry width="50" height="50" relative="1" as="geometry">
            <mxPoint x="953.36" y="393" as="sourcePoint" />
            <mxPoint x="953.36" y="377" as="targetPoint" />
          </mxGeometry>
        </mxCell>
        <mxCell id="V-KV8dHxOfstRU11FW4F-392" value="" style="endArrow=none;html=1;rounded=0;" parent="1" edge="1">
          <mxGeometry width="50" height="50" relative="1" as="geometry">
            <mxPoint x="945.36" y="393" as="sourcePoint" />
            <mxPoint x="945.36" y="377" as="targetPoint" />
          </mxGeometry>
        </mxCell>
        <mxCell id="V-KV8dHxOfstRU11FW4F-393" value="" style="endArrow=none;html=1;rounded=0;" parent="1" edge="1">
          <mxGeometry width="50" height="50" relative="1" as="geometry">
            <mxPoint x="937.36" y="393" as="sourcePoint" />
            <mxPoint x="937.36" y="377" as="targetPoint" />
          </mxGeometry>
        </mxCell>
        <mxCell id="V-KV8dHxOfstRU11FW4F-394" value="&lt;font style=&quot;font-size: 18px;&quot;&gt;{&quot;CPU&quot;:6}&lt;/font&gt;" style="text;html=1;align=center;verticalAlign=middle;whiteSpace=wrap;rounded=0;fontFamily=Courier New;fontStyle=1;fontSize=18;" parent="1" vertex="1">
          <mxGeometry x="915" y="127" width="118" height="30" as="geometry" />
        </mxCell>
        <mxCell id="V-KV8dHxOfstRU11FW4F-395" value="&lt;font face=&quot;Courier New&quot; style=&quot;font-size: 24px;&quot;&gt;&lt;b style=&quot;font-size: 24px;&quot;&gt;{&quot;CPU&quot;:2} * 3, SPREAD&lt;/b&gt;&lt;/font&gt;" style="text;html=1;align=center;verticalAlign=middle;whiteSpace=wrap;rounded=0;fontSize=24;" parent="1" vertex="1">
          <mxGeometry x="407" y="23" width="345" height="30" as="geometry" />
        </mxCell>
        <mxCell id="V-KV8dHxOfstRU11FW4F-396" value="" style="endArrow=classic;html=1;rounded=0;entryX=0.82;entryY=-0.051;entryDx=0;entryDy=0;entryPerimeter=0;exitX=0.5;exitY=1;exitDx=0;exitDy=0;" parent="1" target="V-KV8dHxOfstRU11FW4F-3" edge="1" source="V-KV8dHxOfstRU11FW4F-395">
          <mxGeometry width="50" height="50" relative="1" as="geometry">
            <mxPoint x="583" y="54" as="sourcePoint" />
            <mxPoint x="438" y="35" as="targetPoint" />
          </mxGeometry>
        </mxCell>
        <mxCell id="V-KV8dHxOfstRU11FW4F-397" value="" style="endArrow=classic;html=1;rounded=0;entryX=0.55;entryY=-0.009;entryDx=0;entryDy=0;entryPerimeter=0;" parent="1" target="V-KV8dHxOfstRU11FW4F-134" edge="1">
          <mxGeometry width="50" height="50" relative="1" as="geometry">
            <mxPoint x="580.5" y="52" as="sourcePoint" />
            <mxPoint x="493.5" y="275" as="targetPoint" />
          </mxGeometry>
        </mxCell>
        <mxCell id="V-KV8dHxOfstRU11FW4F-398" value="" style="endArrow=classic;html=1;rounded=0;entryX=0.5;entryY=0;entryDx=0;entryDy=0;" parent="1" target="V-KV8dHxOfstRU11FW4F-265" edge="1">
          <mxGeometry width="50" height="50" relative="1" as="geometry">
            <mxPoint x="581" y="53" as="sourcePoint" />
            <mxPoint x="897" y="175.5" as="targetPoint" />
          </mxGeometry>
        </mxCell>
      </root>
    </mxGraphModel>
  </diagram>
</mxfile>
